<?xml version="1.0" encoding="utf-8"?>
<!-- Generator: Adobe Illustrator 18.1.1, SVG Export Plug-In . SVG Version: 6.00 Build 0)  -->
<svg version="1.1" id="Layer_1" xmlns="http://www.w3.org/2000/svg" xmlns:xlink="http://www.w3.org/1999/xlink" x="0px" y="0px"
	 viewBox="0 0 233.9 219.7" enable-background="new 0 0 233.9 219.7" xml:space="preserve">
<g>
	<path fill="#FFFFFF" d="M67,129.1c-1.7-0.7-3.3-1.2-4.9-1.9c-3.2-1.4-4.9-3.6-4.8-7.2c0-0.9-0.1-2.1-0.7-2.7c-2-2-1.9-3.8-0.2-5.8
		c1.3-1.5,1.8-3.1,1.3-5.3c-0.7-2.8,1.3-5.1,3.1-7.1c2.5-2.7,3.6-5.5,2.7-9.2c-0.4-1.9,0-4.1,0.5-6c0.5-2.2-0.1-3.7-1.8-5
		c-4-3.1-7.7-6.6-12.8-7.9c-0.6-0.2-1.3-0.9-1.6-1.5c-0.8-2.1-1.4-4.3-2.2-6.4c-0.7-2-1.1-3.8-0.3-5.9c0.5-1.3,0.1-3.1-0.3-4.6
		c-1.6-6.2-3.3-12.4-5.1-18.6c-0.2-0.7-1.2-1.2-1.7-1.9c-2.3-2.8-4.3-5.8-6.8-8.5c-1.8-2.1-4-2.9-7.2-2.4c-4.1,0.6-7.4,2.7-11.2,4
		c-2,0.7-3.5,0.3-4.3-1.5C7.3,20.4,6,16.9,4.6,13.5c-1.2-2.7-2.6-5.2-3.6-7.9C0.3,3.9,0.3,2,0,0c4.1,0.9,7.8,1.9,11.5,2.6
		c3.8,0.7,7.8,1.1,11.6,2c3.5,0.9,7.5-0.1,10.5,2.6c3.8-1.4,7.4,0.3,11,0.7c3.9,0.5,7.8,1,11.7,1.5c3.8,0.5,7.6,1.1,11.4,1.5
		c3.9,0.4,7.8,0.7,11.8,1c3.8,0.3,7.6,0.7,11.5,0.9c3.8,0.2,7.6,0.4,11.4,0.6c3.9,0.2,7.9,0.4,11.8,0.6c3.9,0.1,7.7,0.2,11.6,0.2
		c3.9,0,7.7,0.1,11.6,0c3.9-0.1,7.9-0.3,11.8-0.4c3.8-0.1,7.7,0,11.7,0c0.2,4,0.4,8.2,0.6,12.4c0.2,6.1,0.4,12.1,0.6,18.2
		c0.3,9.3,0.5,18.6,0.9,27.9c0.4,9.2,1.1,18.4,1.6,27.5c0.3,6.1,0.1,12.2,1,18.2c0.6,3.8,1.7,8,5.9,10c0.7,0.3,1.6,0.7,2.2,0.5
		c3.3-0.8,4.8,1.5,6.2,3.7c1.4,2.3,2.5,4.7,3.5,7.1c0.9,2.2,2.4,3.5,4.7,4.3c2.5,0.9,4.9,2.1,7.1,3.6c2.5,1.7,4.8,3.7,6.8,6
		c1.7,2,2.7,4.5,4.1,6.7c1,1.5,2.5,2.7,3.5,4.2c1.2,1.7,2.7,2.2,4.6,2.9c7.5,2.5,11.1,4.3,13.2,13.3c0.8,3.4,2.8,6.4,4.2,9.6
		c0.3,0.6,0.7,1,0.9,1.6c2.6,5,2,6.2-3.6,6.9c-6.6,0.8-13.2,1.9-19.8,2.4c-9,0.8-18.1,1.2-27.2,1.7c-10.2,0.5-20.5,0.9-30.8,1.3
		c-4.1,0.1-8.1,0.1-12.2-0.1c-1,0-2-0.7-2.8-1.3c-2.3-1.8-4.5-3.7-6.7-5.5c-0.3-0.3-0.8-0.4-1.2-0.5c-4.8-0.6-8.2-3.9-11.7-6.8
		c-1-0.9-1.8-2.4-2.1-3.7c-0.9-4.7-7.8-8.8-11.8-7.7c-2.3,0.6-3.9-0.4-5.4-2c-3.3-3.5-6.7-6.7-11.3-8.7c-1.7-0.7-3.4-3.1-3.7-4.9
		c-0.5-3.1-1.3-6.1-2.2-9.1c-0.6-2.1-1-4.4-1.5-6.5c-0.6-2.7-2.6-4.4-4.8-5.3c-4-1.5-5-5-6.3-8.4C67.2,132,67.2,130.6,67,129.1z
		 M155.7,18.7C105.6,20.9,56.1,15.5,6.1,6.3c2.3,5.2,4.3,9.7,6.1,13.6c4.1-1.2,7.8-2.1,11.2-3.6c3-1.3,5.3-0.2,7.8,0.9
		c5.9,2.7,7.7,9.1,12.2,13.1c0.9,0.8,0.5,2.8,0.9,4.2c1.9,6.8,3.8,13.5,5.7,20.3c0.3,1.2,0.3,2.6-0.1,3.8c-0.9,3,0.9,7.1,3.5,8.6
		c5.5,3.1,11,6.1,15,11.2c1,1.3,1.3,2.3,0.7,4c-0.8,2.2-1.6,4.9-1.1,7.1c1.3,5.2-0.6,9-3.8,12.6c-1.3,1.5-2.6,3-1.4,5.3
		c0.9,1.7,0,3.3-1.1,4.8c-0.5,0.7-1,1.6-0.9,2.3c0.2,1.8,1.1,3.5,1.1,5.3c0,2.3,1.2,3.6,3.2,3.7c5.5,0.3,6.6,3.4,6.6,8.3
		c0,2.4,1.3,5.1,4.2,6c4.7,1.3,6.2,5.4,7.7,9.3c1.3,3.5,0.3,7.7,3.2,10.8c0.2,0.2,0.2,0.6,0.1,0.9c-0.7,4.1-0.6,3.9,3.3,5.9
		c3.7,1.8,7.5,3.7,9.4,7.9c0.3,0.7,1.5,1.2,2.3,1.3c1.8,0.1,3.5-0.2,5.3-0.3c1.6-0.1,2.9,0,4,1.5c1.1,1.4,2.6,2.8,4.3,3.4
		c1.8,0.7,2.4,1.5,2.5,3.3c0.3,3.8,6.7,9.9,10.5,10.1c2.3,0.1,3.6,1,5,2.7c1.6,1.9,4.1,4.4,6.3,4.4c12.6,0.2,25.2,0,37.8-0.6
		c10.3-0.5,20.6-1.5,31-2.4c4.6-0.4,9.2-0.9,13.8-1.5c1.9-0.3,3.7-1,4.9-1.3c-1.9-5.3-3.6-10.2-5.4-15c-0.3-0.9-0.8-2.1-1.5-2.6
		c-3.1-1.9-6-4.2-10-4.2c-1.1,0-2.4-1.1-3.3-2c-1.7-1.9-3-4-4.6-5.9c-1.2-1.5-2.6-2.9-3.5-4.5c-2.3-3.9-6-6.4-9.3-9.3
		c-0.9-0.8-2.3-1.2-3.5-1.4c-3.5-0.4-5.1-2.6-6.4-5.6c-1.1-2.8-2.9-5.3-4.4-7.8c-0.2-0.4-1-0.9-1.4-0.8c-2.2,0.6-3.9,0-5.5-1.6
		c-1.1-1.1-2.6-1.9-3.2-3.2c-1.7-3.5-3.9-7.1-4.4-10.9c-0.9-6.4-0.5-13-0.8-19.6c-0.7-13.3-1.5-26.6-2.1-39.9
		c-0.5-10.3-0.9-20.6-1.4-30.9C156.5,24.9,156.1,22.1,155.7,18.7z"/>
	<path fill="#FFFFFF" d="M68.9,171.9c4.4-1.2,8.4-0.7,11.8,2.6c3.5,3.4,7.9,5,12.7,5.9c2.4,0.4,4.7,1.3,6.9,2.4c1.2,0.6,2.3,1.8,3,3
		c2.4,3.8,4.3,7.9,7,11.5c1.3,1.8,3.8,2.8,5.9,3.8c2.2,1,3.9,2.3,4.8,4.6c1.3,3,2.9,5.8,4.3,8.8c0.4,1,0.4,2.2,0.5,3.3
		c-3.3,2.7-8,2.7-11.4-0.1c-0.7-0.6-1.6-0.9-2.5-1.3c-2.6-1.1-5.3-2.1-7-4.7c-0.3-0.5-0.9-0.8-1.4-1c-6.8-2.9-12.1-7.7-17.3-12.8
		c-3.2-3.1-6.9-5.7-10-8.8c-3.2-3.1-6.9-5.9-7.3-10.9C68.8,176.2,68.9,174.2,68.9,171.9z M73.8,175.9c-0.4,0.4-0.8,0.8-1.2,1.1
		c1.6,2.3,2.8,4.8,4.8,6.7c4.1,4,8.6,7.4,12.8,11.3c4.2,3.8,8,8.1,13.4,10c2.1,0.7,3.5,1.8,5.1,3.2c3,2.6,6.6,4.4,10.5,6.9
		c-0.3-1.6-0.3-2.4-0.6-3.1c-0.7-1.7-1.2-3.8-2.5-4.9c-1.8-1.6-4.4-2.3-6.5-3.5c-1-0.6-2.1-1.4-2.7-2.4c-2.4-3.7-4.6-7.5-6.9-11.3
		c-2-3.4-5.5-4.4-8.9-4.9c-4.3-0.6-7.8-2.5-11.2-4.8C77.7,178.8,75.8,177.3,73.8,175.9z"/>
	<path fill="#FFFFFF" d="M49.6,109.3c-0.9,2.3-1.9,4.4-2.6,6.6c-1.1,3.6-2.3,7.1-0.2,10.8c2.2,4,4,8.2,6.1,12.2
		c2,3.8-0.2,10.1-3.9,10.7c-3.5,0.6-5.4-1.8-7.4-4.2c-3.9-4.7-5.8-10.3-7.6-16c-1.6-4.8-3.5-9.5-5.3-14.2c-1-2.7,0.7-9.3,2.9-11
		c0.4-0.3,1.4-0.4,1.9-0.1c3.9,2.1,8.1,2.7,12.4,3.3C47,107.7,48.1,108.5,49.6,109.3z M34.3,110.4c-1.7,1.3-1.6,3.1-0.8,5
		c1.3,3.2,2.5,6.5,3.7,9.7c1.3,3.7,2.2,7.5,3.9,11.1c1.3,2.8,3.5,5.3,5.3,7.9c0.4-0.2,0.8-0.4,1.3-0.6c-1.2-3.8-2.2-7.6-3.7-11.3
		c-1.5-3.8-3.9-7.4-2.8-11.8c0.6-2.6,1.1-5.2,1.7-8C40.2,111.8,37.4,111.1,34.3,110.4z"/>
</g>
</svg>
