<svg id="IDENTITY" xmlns="http://www.w3.org/2000/svg" xmlns:xlink="http://www.w3.org/1999/xlink" viewBox="0 0 297 268.08"><defs><style>.cls-1{fill:none;}.cls-2{fill:#004b8d;}.cls-3{fill:#fdb913;}.cls-4{fill:url(#Sun_Halo);}.cls-5{fill:url(#Wide_Sun_Rays);}.cls-6{fill:url(#Wide_Sun_Rays-2);}.cls-7{fill:url(#Wide_Sun_Rays-3);}.cls-8{fill:url(#Wide_Sun_Rays-4);}.cls-9{fill:url(#Wide_Sun_Rays-5);}.cls-10{fill:url(#Wide_Sun_Rays-6);}.cls-11{fill:url(#Wide_Sun_Rays-7);}.cls-12{fill:url(#Sun_and_Pointed_Rays);}</style><radialGradient id="Sun_Halo" cx="405.97" cy="268.82" r="80.84" gradientUnits="userSpaceOnUse"><stop offset="0" stop-color="#fff"/><stop offset="0.13" stop-color="#fffefc"/><stop offset="0.24" stop-color="#fffaf1"/><stop offset="0.34" stop-color="#fff4df"/><stop offset="0.45" stop-color="#ffebc6"/><stop offset="0.55" stop-color="#ffe0a5"/><stop offset="0.6" stop-color="#ffd990"/><stop offset="0.62" stop-color="#ffd581"/><stop offset="0.66" stop-color="#fecc5f"/><stop offset="0.71" stop-color="#fec543"/><stop offset="0.77" stop-color="#fdc02e"/><stop offset="0.83" stop-color="#fdbc1f"/><stop offset="0.9" stop-color="#fdba16"/><stop offset="1" stop-color="#fdb913"/></radialGradient><radialGradient id="Wide_Sun_Rays" cx="362.82" cy="273.29" r="82.83" gradientTransform="translate(74.41) scale(0.91 1)" gradientUnits="userSpaceOnUse"><stop offset="0.53" stop-color="#fff"/><stop offset="0.6" stop-color="#fff7e9"/><stop offset="0.74" stop-color="#ffe3b0"/><stop offset="0.77" stop-color="#ffdfa4"/><stop offset="0.8" stop-color="#ffd992"/><stop offset="0.87" stop-color="#ffca62"/><stop offset="0.88" stop-color="#ffc85a"/><stop offset="0.91" stop-color="#ffc54b"/><stop offset="0.97" stop-color="#febf33"/><stop offset="1" stop-color="#febd2a"/></radialGradient><radialGradient id="Wide_Sun_Rays-2" cx="359.3" cy="28.83" r="82.95" gradientTransform="matrix(0.85, -0.34, 0.37, 0.93, 90.76, 369.66)" xlink:href="#Wide_Sun_Rays"/><radialGradient id="Wide_Sun_Rays-3" cx="451.81" cy="-190.35" r="82.96" gradientTransform="matrix(0.66, -0.64, 0.69, 0.72, 241.25, 697.19)" xlink:href="#Wide_Sun_Rays"/><radialGradient id="Wide_Sun_Rays-4" cx="406.21" cy="273.29" r="82.9" gradientTransform="matrix(1, 0, 0, 1, 0, 0)" xlink:href="#Wide_Sun_Rays"/><radialGradient id="Wide_Sun_Rays-5" cx="467.24" cy="501.86" r="82.88" gradientTransform="matrix(0.85, 0.34, -0.37, 0.93, 198.04, -352.12)" xlink:href="#Wide_Sun_Rays"/><radialGradient id="Wide_Sun_Rays-6" cx="661.65" cy="685.68" r="82.69" gradientTransform="matrix(0.66, 0.64, -0.69, 0.72, 447.32, -640.2)" xlink:href="#Wide_Sun_Rays"/><radialGradient id="Wide_Sun_Rays-7" cx="915.71" cy="792.27" r="82.59" gradientTransform="matrix(0.37, 0.84, -0.91, 0.41, 789.39, -813.92)" xlink:href="#Wide_Sun_Rays"/><radialGradient id="Sun_and_Pointed_Rays" cx="406.05" cy="273.32" r="82.85" gradientUnits="userSpaceOnUse"><stop offset="0.72" stop-color="#fff"/><stop offset="0.81" stop-color="#fff8ed"/><stop offset="0.99" stop-color="#ffe7bd"/><stop offset="1" stop-color="#ffe6b9"/></radialGradient></defs><title>BCID_logo</title><circle class="cls-1" cx="148.86" cy="125.26" r="0.25"/><path class="cls-2" d="M329.34,312.61c0-3.31-.23-4.19-2.47-4.37l-1.55-.11c-.25-.2-.18-1.1,0-1.12,2.68-.24,6.06-.36,10.68-.36,3.13,0,6.11.22,8.34,1.25a5.86,5.86,0,0,1,3.77,5.59c0,3.22-2.09,4.88-5.07,6.13,0,.45.4.58.94.67,2.68.45,6.65,2.68,6.65,7.47,0,5.19-4.27,8.68-13.21,8.68-1.44,0-3.87-.13-6-.13s-3.87.09-5.71.13a.81.81,0,0,1-.1-1.12l.89-.13c2.63-.4,2.73-.89,2.73-5.59Zm4.07,5.95c0,1.25,0,1.34,2.58,1.25,5.07-.18,7.8-1.52,7.8-5.73,0-4.38-3.63-6-7.4-6a6.71,6.71,0,0,0-2.28.27c-.5.13-.7.36-.7,1.16Zm0,10.38c0,1.61.1,3.89,1,4.88a5.14,5.14,0,0,0,3.92,1.25c4.42,0,7.8-1.79,7.8-6.26,0-3.53-2-7.65-9.88-7.65-2.68,0-2.88.27-2.88,1.16Z" transform="translate(-258 -148)"/><path class="cls-2" d="M385.21,317c0-4.05-.08-4.7-2.59-4.89l-1.06-.08c-.25-.15-.17-.84.08-1,2.12.08,3.56.11,5.34.11s3.14,0,5.26-.11c.25.11.34.8.08,1l-1.06.08c-2.5.19-2.59.84-2.59,4.89v13.61c0,4.05.08,4.59,2.59,4.85l1.06.11c.25.15.17.84-.08,1-2.12-.08-3.56-.11-5.26-.11s-3.22,0-5.34.11a.69.69,0,0,1-.08-1l1.06-.11c2.5-.27,2.59-.8,2.59-4.85Z" transform="translate(-258 -148)"/><path class="cls-2" d="M408.74,330.7c0,4,.08,4.59,2.38,4.78l1.27.11c.24.15.16.84-.08,1-2.27-.08-3.62-.11-5.21-.11s-3,0-5.53.11a.65.65,0,0,1,0-1l1.43-.11c2.27-.19,2.46-.77,2.46-4.78V313.61c0-1.18,0-1.22-1.19-1.22h-2.18c-1.71,0-3.9.08-4.89,1a7,7,0,0,0-1.79,2.64.78.78,0,0,1-1-.27,38.94,38.94,0,0,0,1.51-5.69,1,1,0,0,1,.75,0c.24,1.22,1.55,1.18,3.38,1.18h16.1c2.15,0,2.5-.08,3.1-1.07.2-.08.64,0,.71.11a22.36,22.36,0,0,0-.6,5.81c-.16.3-.83.3-1,.08-.12-1-.4-2.37-1-2.79-.92-.65-2.42-1-4.61-1H409.9c-1.19,0-1.15,0-1.15,1.3Z" transform="translate(-258 -148)"/><path class="cls-2" d="M425.78,317c0-4.05-.09-4.7-2.59-4.89l-1.06-.08c-.25-.15-.17-.84.08-1,2.12.08,3.56.11,5.34.11s3.14,0,5.26-.11c.25.11.34.8.09,1l-1.06.08c-2.5.19-2.59.84-2.59,4.89v13.61c0,4.05.08,4.59,2.59,4.85l1.06.11c.25.15.17.84-.09,1-2.12-.08-3.56-.11-5.26-.11s-3.22,0-5.34.11a.69.69,0,0,1-.08-1l1.06-.11c2.5-.27,2.59-.8,2.59-4.85Z" transform="translate(-258 -148)"/><path class="cls-2" d="M444.79,336.93a16.08,16.08,0,0,1-7-1.41,15.33,15.33,0,0,1-1.22-5.35c.23-.27.9-.34,1.08-.11a7.81,7.81,0,0,0,7.76,5.69c3.79,0,5.64-2.1,5.64-4.39,0-1.68-.41-3.55-3.7-5.35L443,323.63c-2.25-1.26-4.87-3.44-4.87-6.57,0-3.63,3.34-6.57,9.2-6.57a20.36,20.36,0,0,1,4.19.5,7.09,7.09,0,0,0,1.58.23,14.37,14.37,0,0,1,.81,4.66,1,1,0,0,1-1.13.12c-.59-1.83-1.8-4.32-6.13-4.32s-5.37,2.48-5.37,4.24c0,2.22,2.16,3.82,3.83,4.7l3.61,1.91c2.84,1.49,5.64,3.71,5.64,7.34C454.39,334.07,450.65,336.93,444.79,336.93Z" transform="translate(-258 -148)"/><path class="cls-2" d="M467.49,324.08c-2,0-2.06.08-2.06,1.22v5.39c0,4,.21,4.55,2.51,4.78l1.19.11c.25.15.16.84-.08,1-2.22-.08-3.62-.11-5.22-.11-1.77,0-3.17.08-4.77.11a.7.7,0,0,1-.08-1l.7-.11c2.3-.38,2.39-.77,2.39-4.78V316.94c0-4-.29-4.66-2.43-4.81l-1.07-.08c-.25-.15-.16-.84.08-1,2,0,3.41.11,5.18.11,1.6,0,3,0,4.77-.11.25.11.33.8.08,1l-.78.08c-2.38.23-2.47.8-2.47,4.81v4.4c0,1.18.08,1.22,2.06,1.22h11.76c2,0,2.06,0,2.06-1.22v-4.4c0-4-.08-4.59-2.51-4.81L478,312c-.25-.15-.16-.84.08-1,1.89.08,3.29.11,5,.11s3,0,4.85-.11c.25.11.33.8.08,1l-.86.08c-2.38.23-2.47.8-2.47,4.81V330.7c0,4,.08,4.51,2.47,4.78l1,.11c.25.15.17.84-.08,1-2-.08-3.37-.11-5-.11s-3.17,0-5,.11a.7.7,0,0,1-.08-1l.78-.11c2.51-.38,2.51-.77,2.51-4.78v-5.39c0-1.15-.08-1.22-2.06-1.22Z" transform="translate(-258 -148)"/><path class="cls-2" d="M305.8,344.94a20,20,0,0,1,12.5-3.92,35.81,35.81,0,0,1,8.2,1.11,3.5,3.5,0,0,0,1.3.18c0,1.06.28,4,.65,6.78a1,1,0,0,1-1.25.09c-.69-3.14-2.78-6.74-9.49-6.74-7.08,0-13.1,4.48-13.1,14s6.16,15,13.75,15a9.87,9.87,0,0,0,9.68-6.6,1,1,0,0,1,1.2.18,17.31,17.31,0,0,1-2.22,6.32,9.39,9.39,0,0,0-1.62.46,27.34,27.34,0,0,1-7.32,1.06,20.33,20.33,0,0,1-11.53-3.09A14.86,14.86,0,0,1,300,357.17,15.31,15.31,0,0,1,305.8,344.94Z" transform="translate(-258 -148)"/><path class="cls-2" d="M331.13,359.86c0-7.64,6-13.49,14.29-13.49,9.27,0,13.92,6.38,13.92,13.11,0,7.72-6.18,13.34-13.92,13.34C336.5,372.82,331.13,366.74,331.13,359.86Zm24.2.8c0-6.31-2.93-13.11-10.59-13.11-4.17,0-9.59,2.71-9.59,11.08,0,5.66,2.89,13,10.79,13C350.75,371.63,355.32,368.2,355.32,360.67Z" transform="translate(-258 -148)"/><path class="cls-2" d="M404.61,356.58c0-2.37-.08-6.76-.77-7.91a2.57,2.57,0,0,0-2-.8l-1-.08a.66.66,0,0,1,.08-.92c1.54.08,3,.12,4.62.12s2.8,0,4.25-.11a.63.63,0,0,1,.08.92l-1,.08a2.41,2.41,0,0,0-2,.92c-.57,1.26-.57,5.66-.57,7.8v4.32c0,3.33-.57,6.84-2.84,9.13a11,11,0,0,1-7.74,2.79c-2.79,0-5.59-.5-7.58-2.1-2.15-1.68-3.16-4.47-3.16-9v-9c0-4-.08-4.62-2.43-4.82l-1-.08c-.24-.15-.16-.8.08-.92,2,.08,3.4.12,5,.12s3,0,5-.11c.24.11.32.76.08.92l-1,.08c-2.35.19-2.43.84-2.43,4.82v8.25c0,6.15,2,10.2,8.22,10.2,5.87,0,8.1-4.36,8.1-10.17Z" transform="translate(-258 -148)"/><path class="cls-2" d="M451.69,351.8c0-2.86-.18-3.59-2.19-3.74l-1.43-.14c-.16-.15-.25-.92,0-.94,2.42-.18,5.46-.31,9.63-.31a19.49,19.49,0,0,1,7.52,1.08,5.06,5.06,0,0,1,3.4,4.83c0,2.78-1.88,4.21-4.57,5.29,0,.39.36.5.85.58,2.42.39,6,2.32,6,6.45,0,4.48-3.85,7.49-11.91,7.49-1.3,0-3.49-.12-5.37-.12s-3.49.08-5.15.12a.67.67,0,0,1-.09-1l.81-.12c2.37-.35,2.46-.77,2.46-4.83Zm3.67,5.13c0,1.08,0,1.16,2.33,1.08,4.57-.15,7-1.31,7-4.94,0-3.78-3.27-5.21-6.67-5.21a6.33,6.33,0,0,0-2.06.23c-.45.12-.63.31-.63,1Zm0,9c0,1.39.09,3.36.94,4.21a4.78,4.78,0,0,0,3.54,1.08c4,0,7-1.54,7-5.4,0-3-1.79-6.6-8.91-6.6-2.42,0-2.6.23-2.6,1Z" transform="translate(-258 -148)"/><rect class="cls-3" x="67.52" y="234.63" width="162.65" height="1.92"/><path class="cls-4" d="M486.81,254.38a82.83,82.83,0,0,0-161.67,1.86l17.49-10,9.64,6.75s5.64-2.55,6.83-3.3l7,7.35s15.14,12,15.58,12,13.36-7.5,13.36-7.5l11.58-7.95L416.67,261l7.57,1.5,7.71,5.25s18.7-12.44,21.66-13.94c0,0,8.16,3,8.9,2.85s13.5-10,13.5-10Z" transform="translate(-258 -148)"/><path class="cls-5" d="M407,230.92c.79,0,1.63,0,2.42.06l2.95-40.25q-3.05-.22-6.16-.23-2,0-4,.1l2,40.42C405.08,231,406,230.92,407,230.92Z" transform="translate(-258 -148)"/><path class="cls-6" d="M393.25,233.22l-12.44-38.76a82.28,82.28,0,0,0-9.44,3.69l17.1,37A42.1,42.1,0,0,1,393.25,233.22Z" transform="translate(-258 -148)"/><path class="cls-7" d="M379.52,241.1l-26.24-31.49a83.21,83.21,0,0,0-7.42,7l29.92,28.14A43.41,43.41,0,0,1,379.52,241.1Z" transform="translate(-258 -148)"/><path class="cls-8" d="M369.78,253.18l-36.33-19.47a83,83,0,0,0-4.31,9.2l38.55,14.95A42.44,42.44,0,0,1,369.78,253.18Z" transform="translate(-258 -148)"/><path class="cls-9" d="M425.16,235l17.69-36a82.26,82.26,0,0,0-9.39-3.94l-13.23,37.94A42.82,42.82,0,0,1,425.16,235Z" transform="translate(-258 -148)"/><path class="cls-10" d="M437.89,244.44l29.77-26.61a83.35,83.35,0,0,0-7.19-7.06l-26.33,30A42.62,42.62,0,0,1,437.89,244.44Z" transform="translate(-258 -148)"/><path class="cls-11" d="M446.38,258.1l37.5-13.48a82.41,82.41,0,0,0-4.05-9.2l-35.57,17.95A41.25,41.25,0,0,1,446.38,258.1Z" transform="translate(-258 -148)"/><path class="cls-12" d="M395,261.56l11.58-7.95L416.67,261l7.57,1.5,7.71,5.25s8.41-5.6,14.85-9.74a42.44,42.44,0,0,0-4.23-8.28l27.93-21.62L440.8,247.21a42.82,42.82,0,0,0-9.46-9.06l17.51-30-20,28.39a42.32,42.32,0,0,0-12.2-4.93l5-34.56-8,34a42.86,42.86,0,0,0-13.83.07l-8-34.06,5,34.66a42.33,42.33,0,0,0-12.08,5l-20.15-28.58,17.64,30.24a42.82,42.82,0,0,0-9.29,9l-30-19.33,28.22,21.85a42.47,42.47,0,0,0-4.07,8c3.49,2.76,14.11,11.12,14.48,11.12S395,261.56,395,261.56Z" transform="translate(-258 -148)"/><path class="cls-2" d="M486.67,253.82,476,246.11s-12.76,9.9-13.5,10-8.9-2.85-8.9-2.85c-3,1.5-21.66,13.94-21.66,13.94L424.23,262l-7.57-1.5-10.09-7.35L395,261.1s-12.91,7.5-13.36,7.5-15.58-12-15.58-12l-7-7.35c-1.19.75-6.83,3.3-6.83,3.3l-9.64-6.75-17.37,9.9a83.29,83.29,0,0,0-.43,33.08c7.28-1.33,20.54-3.21,31.52-1.82,16,2,26,4.72,43,8.55s29.38,7.42,47.63,5.4c17.08-1.89,29.49-5.37,40.86-13.55a83.3,83.3,0,0,0-1.12-33.54Z" transform="translate(-258 -148)"/><path class="cls-2" d="M378.73,335.59l-1.06-.09-.59-.08c-1.55-.28-2.17-1.66-2.9-2.94l-3.67-6.39c-.63-1.06-1.31-2.5-2.76-2.7,3.76-.45,7.16-2.62,7.16-6.35,0-4.3-4.26-6.22-8.56-6.22-2.58,0-4.93.07-7.56.07-1.45,0-3.17-.07-4.62-.07-.8,0-.81.16-.81.61,0,.67.28.48,1.13.53,3.06.17,2.94.74,2.94,3.36v16.75c0,2.4.21,3.11-2.31,3.34l-.6.06-1.07.11a.69.69,0,0,0,.09,1l1.57-.06c1.39,0,2.79-.15,4.18-.15s2.74.11,4.12.15h0l1.57.05a.69.69,0,0,0,.09-1l-1.07-.1-.59-.06c-2.54-.17-2.39-.89-2.39-3.35v-6.31c0-.37,0-1.35.23-1.64s.63-.21,1-.21c3.44,0,3.4.33,5,3.19l4.44,8c.36.61.63,1.39,1.54,1.39h3.85l1.56.05A.69.69,0,0,0,378.73,335.59ZM363.27,323c-.77,0-2.31.29-2.31-.74V315c0-2.87.09-3.28,3.53-3.28,4,0,6.52,2,6.52,5.81a4.81,4.81,0,0,1-2.08,4.18A9.34,9.34,0,0,1,363.27,323Z" transform="translate(-258 -148)"/><path class="cls-2" d="M364.1,352.81c0-4-.08-4.62-2.73-4.82l-1.05-.08c-.25-.15-.17-.84.08-1,2.35.08,3.78.12,5.46.12s3.07,0,5.17-.11c.25.11.34.8.08,1l-1,.08c-2.48.19-2.56.8-2.56,4.82v13.3c0,2.41.13,3.4.88,4.13.46.42,1.26.88,4.58.88,3.57,0,4.46-.15,5.13-.5a8.19,8.19,0,0,0,2.77-3.78c.25-.19,1.05,0,1.05.23a28.57,28.57,0,0,1-1.77,5.35c-2.14-.08-6.14-.12-10.47-.12h-3.87c-1.77,0-3.11,0-5.46.12a.69.69,0,0,1-.08-1l1.26-.12c2.44-.23,2.52-.76,2.52-4.78Z" transform="translate(-258 -148)"/><path class="cls-2" d="M476.71,352.88c0-4.05-.08-4.7-2.52-4.89l-1-.08c-.25-.15-.17-.84.08-1,2.06.08,3.47.12,5.2.12s3.05,0,5.12-.11c.25.11.33.8.08,1l-1,.08c-2.43.19-2.52.84-2.52,4.89v13.61c0,4.05.08,4.59,2.52,4.85l1,.12c.25.15.16.84-.08,1-2.06-.08-3.47-.12-5.12-.12s-3.14,0-5.2.12a.7.7,0,0,1-.08-1l1-.12c2.44-.27,2.52-.8,2.52-4.85Z" transform="translate(-258 -148)"/><path class="cls-2" d="M443.73,371.34l-.61-.05a1.62,1.62,0,0,1-1.13-.44c-.54-.57-.49-2.19-.49-2.84V351.25c0-.73-.18-2.31.36-2.88a2,2,0,0,1,1.32-.38h0l.57,0,1.06-.08c.25-.15.17-.84-.09-1l-1.57,0h-4.51c-.49,0-.94,0-1.2.53l-9.19,19.14-8.12-18.49c-.27-.65-.31-1.18-1.16-1.18h-4.69l-1.59,0c-.25.11-.34.8-.09,1l1.06.08.62,0c1.76.11,1.87.51,1.71,2.36l-1.38,18c-.12,1.8-.22,2.76-2.11,2.93l-.62.07-1.06.11a.69.69,0,0,0,.08,1l1.55,0c1,0,1.93-.13,2.91-.13s2.11.1,3.16.14h0l1.57.05a.69.69,0,0,0,.08-1l-1.06-.12-.59-.05c-2.73-.19-2.66-2.11-2.5-4.47l1.29-16.71h.31l8.79,20.56c.09.28.22.77.67.77s.54-.45.67-.73l9.9-21.08H438V368c0,.73.09,2.23-.67,2.8a5.58,5.58,0,0,1-1.69.47l-.57.08-1.06.12a.69.69,0,0,0,.08,1l1.55-.05c1.44,0,2.9-.15,4.36-.15,1.05,0,3.11.1,3.11.1.49,0,1,.07,1.62.09a.69.69,0,0,0,.08-1Z" transform="translate(-258 -148)"/><path class="cls-2" d="M512.65,371.44l-.14-.12-.58-.08c-1.65-.37-2.3-2.36-2.91-3.78l-8.5-20.13c-.08-.24-.25-.76-.59-.76s-.59.56-.72.88l-8.12,20.09a13.33,13.33,0,0,1-1.6,3.17,2.32,2.32,0,0,1-1.55.57l-.68.07-1,.1a.69.69,0,0,0,.08,1l1.57-.06c1.11,0,2.22-.16,3.34-.16.94,0,1.87.1,2.81.14l1.57.06a.69.69,0,0,0,.08-1l-1.06-.11-.58-.06c-1-.11-2.2-.28-2.2-1.36a6.64,6.64,0,0,1,.59-2.21l1.26-3c.63-1.44.38-1.6,2.06-1.6h5.73c2,0,1.73,0,2.61,2l1.35,3a6.62,6.62,0,0,1,.59,2c0,1-1.1,1.07-2.13,1.16l-.64.05-1,.07a.69.69,0,0,0,.08,1l1.57-.06c1.2,0,2.4-.14,3.56-.14,1.47,0,2.95.1,4.42.14h0c.48,0,.07,0,.63.05A.69.69,0,0,0,512.65,371.44ZM501.51,362h-5c-.17,0-1.55.16-1.55-.24a2,2,0,0,1,.13-.49l3-7.37c.09-.2.39-1.22.73-1.22s.6,1.05.69,1.22l2.93,6.89c0,.08.3.73.3.89C502.77,362.1,501.77,362,501.51,362Z" transform="translate(-258 -148)"/><rect class="cls-1" width="297" height="268.08"/></svg>