<svg id="Layer_1" data-name="Layer 1" xmlns="http://www.w3.org/2000/svg" viewBox="0 0 226 134.43"><defs><style>.cls-1,.cls-2{fill:#343435;stroke:#343435;stroke-miterlimit:10;}.cls-1{stroke-width:0.25px;}.cls-2{stroke-width:0.5px;}</style></defs><title>eypd-logo-final</title><path class="cls-1" d="M22.69,42.63c.06.53.1,1.82.1,3.85h2a26.78,26.78,0,0,0,2.95-.15,2.71,2.71,0,0,1,.15,1.05,1.65,1.65,0,0,1-.42,1.29,2.43,2.43,0,0,1-1.53.36H22.79A33.38,33.38,0,0,0,23,54.1c.73,0,1.32,0,1.77,0q4.08,0,5.25-.57a4.59,4.59,0,0,1,.3,1.72,1.09,1.09,0,0,1-.66,1.13A8.28,8.28,0,0,1,27,56.7c-4,0-6.29,0-6.92-.05a1.21,1.21,0,0,1-1-.35,1.81,1.81,0,0,1-.25-1.07c0-.27,0-.88,0-1.85s0-1.74,0-2.33v-5a44,44,0,0,0-.32-5.82Q21.82,40,25.16,40a17.1,17.1,0,0,1,4.68.4c.31.12.47.45.47,1a4.41,4.41,0,0,1-.3,1.7,20.61,20.61,0,0,0-5.57-.52Z"/><path class="cls-1" d="M34,48.8c-1.46-.26-2.2-.89-2.2-1.87,0-.67.48-1.23,1.44-1.7a7.79,7.79,0,0,1,3.46-.7,6.17,6.17,0,0,1,3.88,1,4,4,0,0,1,1.25,3.32c0,.14,0,.63,0,1.48s0,1.48,0,1.9a14.77,14.77,0,0,0,.47,4.3,7.48,7.48,0,0,1-1.95.3c-1.2,0-1.9-.48-2.1-1.45a4.14,4.14,0,0,1-1.53,1.11,4.61,4.61,0,0,1-1.89.41A3.22,3.22,0,0,1,32.48,56a3.46,3.46,0,0,1-.94-2.64,3.12,3.12,0,0,1,.56-2.05,3.5,3.5,0,0,1,1.54-1,18.49,18.49,0,0,1,4.5-.75,4.85,4.85,0,0,0-.34-2.13,1.47,1.47,0,0,0-1.41-.62,2.29,2.29,0,0,0-1.34.53A3,3,0,0,0,34,48.8Zm4.1,2.6c-.5.09-.88.16-1.15.23a5.69,5.69,0,0,0-.86.31,1.39,1.39,0,0,0-.65.55,1.8,1.8,0,0,0-.19.84,1.31,1.31,0,0,0,.3.94,1,1,0,0,0,.75.31A2.51,2.51,0,0,0,38.06,54c0-.15,0-.4,0-.75C38,52.6,38.06,52,38.11,51.4Z"/><path class="cls-1" d="M46.16,44.7a2.77,2.77,0,0,1,1.48.33,1.38,1.38,0,0,1,.52,1.27v.33a8.35,8.35,0,0,1,1.61-1.45,3.31,3.31,0,0,1,1.87-.65,1.65,1.65,0,0,1,1.12.34,1.08,1.08,0,0,1,.4.88,2.94,2.94,0,0,1-.9,2,3.13,3.13,0,0,0-1.62-.55,4,4,0,0,0-2.58,1.53c-.05,1-.07,1.93-.07,2.85a18.06,18.06,0,0,0,.42,4.82,6.88,6.88,0,0,1-2.07.33,2.51,2.51,0,0,1-1.64-.41,1.55,1.55,0,0,1-.46-1.22c0-.26,0-.89,0-1.87s0-1.77,0-2.35q0-3.57-.17-5.85A6.11,6.11,0,0,1,46.16,44.7Z"/><path class="cls-1" d="M56.29,38.08a2.86,2.86,0,0,1,1.47.32,1.4,1.4,0,0,1,.53,1.28c0,.1,0,.83-.09,2.2s-.09,2.39-.09,3.07V51.8a16.52,16.52,0,0,0,.43,4.6,6.89,6.89,0,0,1-2.08.33,2.53,2.53,0,0,1-1.64-.41,1.58,1.58,0,0,1-.46-1.22c0-.26,0-.85,0-1.75s0-1.63,0-2.2v-6.9q0-3.57-.18-5.85A6.44,6.44,0,0,1,56.29,38.08Z"/><path class="cls-1" d="M69.81,44.53c1.25,0,1.88.42,1.88,1.25a15.83,15.83,0,0,1-.89,4,44,44,0,0,1-2.11,5.41,47.67,47.67,0,0,1-3.78,6.6,2.11,2.11,0,0,1-1.75,1.12,3.21,3.21,0,0,1-2.45-1.52A16.38,16.38,0,0,0,64.61,57q-3.37-9.35-5.1-11a4.91,4.91,0,0,1,2.8-1.28,1.51,1.51,0,0,1,.91.25,2.06,2.06,0,0,1,.59.8A32.46,32.46,0,0,1,65,49.3c.54,1.82.95,3.41,1.25,4.78.45-1.37.86-2.87,1.24-4.5a18.38,18.38,0,0,0,.56-3.53A8.56,8.56,0,0,0,68,44.9,4.42,4.42,0,0,1,69.81,44.53Z"/><path class="cls-1" d="M85,46.88a24.76,24.76,0,0,0,1.91-3.79A11.72,11.72,0,0,0,88,39.83c2.4.25,3.6.87,3.6,1.87a1.76,1.76,0,0,1-.17.62,6,6,0,0,1-.52,1c-.24.38-.47.74-.69,1.06s-.52.76-.91,1.29l-.89,1.2-1,1.25-.8,1.05v2.45a16.81,16.81,0,0,0,.6,4.8,6.52,6.52,0,0,1-2.27.35,4.71,4.71,0,0,1-.83-.06,3.23,3.23,0,0,1-.69-.25,1.13,1.13,0,0,1-.53-.65,3.35,3.35,0,0,1-.18-1.19c0-.32,0-.91,0-1.79s0-1.51,0-1.91V49.3q-3.65-6.87-5.42-7.65a3.47,3.47,0,0,1,2.67-1.72,2.63,2.63,0,0,1,2.3,1.57Q83.14,42.91,85,46.88Z"/><path class="cls-1" d="M98.71,44.53a5.58,5.58,0,0,1,3.2.92,3.13,3.13,0,0,1,1.35,2.75c0,2.47-1.76,3.7-5.3,3.7-.32,0-.89,0-1.72,0A2.67,2.67,0,0,0,97,53.93a2.52,2.52,0,0,0,1.76.65,3.6,3.6,0,0,0,2.88-1.2,2.53,2.53,0,0,1,.93.74,1.45,1.45,0,0,1,.37.93,1.36,1.36,0,0,1-.89,1.2,5,5,0,0,1-1.73.55,12.76,12.76,0,0,1-1.61.1,6.64,6.64,0,0,1-4.5-1.51,5.78,5.78,0,0,1-1.75-4.61,6.23,6.23,0,0,1,1-3.51,5.64,5.64,0,0,1,2.35-2.1A7,7,0,0,1,98.71,44.53Zm-.2,2.37a2,2,0,0,0-1.57.82,3.69,3.69,0,0,0-.7,2.38l1-.08c.2,0,.47-.08.83-.17a1.68,1.68,0,0,0,.77-.33,2.07,2.07,0,0,0,.44-.6,2.15,2.15,0,0,0,.2-1,1.11,1.11,0,0,0-.27-.72A.86.86,0,0,0,98.51,46.9Z"/><path class="cls-1" d="M107.19,48.8c-1.47-.26-2.2-.89-2.2-1.87,0-.67.48-1.23,1.43-1.7a7.84,7.84,0,0,1,3.47-.7,6.12,6.12,0,0,1,3.87,1A4,4,0,0,1,115,48.85c0,.14,0,.63,0,1.48s0,1.48,0,1.9a14.36,14.36,0,0,0,.48,4.3,7.6,7.6,0,0,1-2,.3c-1.2,0-1.9-.48-2.1-1.45a4.18,4.18,0,0,1-1.54,1.11,4.57,4.57,0,0,1-1.89.41,3.23,3.23,0,0,1-2.31-.88,3.46,3.46,0,0,1-.94-2.64,3.12,3.12,0,0,1,.56-2.05,3.5,3.5,0,0,1,1.54-1,18.66,18.66,0,0,1,4.5-.75,4.71,4.71,0,0,0-.34-2.13,1.46,1.46,0,0,0-1.41-.62,2.32,2.32,0,0,0-1.34.53A2.94,2.94,0,0,0,107.19,48.8Zm4.1,2.6c-.5.09-.89.16-1.15.23a5.41,5.41,0,0,0-.87.31,1.44,1.44,0,0,0-.65.55,1.8,1.8,0,0,0-.18.84,1.31,1.31,0,0,0,.3.94,1,1,0,0,0,.75.31,2.52,2.52,0,0,0,1.75-.63,6.45,6.45,0,0,1,0-.75C111.21,52.6,111.24,52,111.29,51.4Z"/><path class="cls-1" d="M119.34,44.7a2.76,2.76,0,0,1,1.47.33,1.38,1.38,0,0,1,.53,1.27v.33A8.07,8.07,0,0,1,123,45.18a3.26,3.26,0,0,1,1.86-.65,1.69,1.69,0,0,1,1.13.34,1.11,1.11,0,0,1,.4.88,2.94,2.94,0,0,1-.9,2,3.19,3.19,0,0,0-1.63-.55,4,4,0,0,0-2.57,1.53c0,1-.08,1.93-.08,2.85a17.52,17.52,0,0,0,.43,4.82,6.94,6.94,0,0,1-2.08.33,2.53,2.53,0,0,1-1.64-.41,1.55,1.55,0,0,1-.46-1.22c0-.26,0-.89,0-1.87s0-1.77,0-2.35q0-3.57-.18-5.85A6.13,6.13,0,0,1,119.34,44.7Z"/><path class="cls-1" d="M133.61,48.55a2.32,2.32,0,0,0-.7-1.2,1.67,1.67,0,0,0-1.1-.42,1.56,1.56,0,0,0-1,.3,1,1,0,0,0-.4.87,1.06,1.06,0,0,0,.58.95,5.21,5.21,0,0,0,1.43.57,14.62,14.62,0,0,1,1.67.52,3.33,3.33,0,0,1,1.43,1,2.85,2.85,0,0,1,.59,1.85,3.24,3.24,0,0,1-1.52,2.89,6.32,6.32,0,0,1-3.56,1c-.43,0-.86,0-1.27-.06a10.41,10.41,0,0,1-1.44-.25,2.67,2.67,0,0,1-1.3-.65,1.5,1.5,0,0,1-.49-1.14c0-.9.68-1.6,2-2.1a2.21,2.21,0,0,0,.95,1.35,2.64,2.64,0,0,0,1.47.45q1.68,0,1.68-1.2c0-.38-.3-.69-.89-.93a10.75,10.75,0,0,0-1.94-.6,4.15,4.15,0,0,1-1.94-1.08,2.93,2.93,0,0,1-.88-2.24,3.34,3.34,0,0,1,1.51-2.85A5.78,5.78,0,0,1,132,44.53a8.17,8.17,0,0,1,1.76.19,4,4,0,0,1,1.62.72,1.6,1.6,0,0,1,.72,1.31,1.46,1.46,0,0,1-.61,1.17A3.71,3.71,0,0,1,133.61,48.55Z"/><path class="cls-1" d="M18.48,73.66v-3.4a27.63,27.63,0,0,0-.23-3.91,20.37,20.37,0,0,1,2.92-.2q5.26,0,5.27,3.67a3.89,3.89,0,0,1-1.06,2.87,3.54,3.54,0,0,1-2.56,1.06,3.27,3.27,0,0,1-1.72-.51v1.14a10.12,10.12,0,0,0,.41,3,4,4,0,0,1-1.6.24,1.41,1.41,0,0,1-1.16-.38,1.68,1.68,0,0,1-.3-1.08c0-.18,0-.55,0-1.1S18.48,74.06,18.48,73.66Zm3.64-1.58a1.3,1.3,0,0,0,1.14-.58,2.65,2.65,0,0,0,.41-1.56,2.13,2.13,0,0,0-.51-1.63,2.35,2.35,0,0,0-1.58-.45,3.57,3.57,0,0,0-.55.07c0,.52.07,1.43.07,2.72v1.18A2.38,2.38,0,0,0,22.12,72.08Z"/><path class="cls-1" d="M28.72,69.46a2,2,0,0,1,1,.22,1,1,0,0,1,.36.87v.22a5.44,5.44,0,0,1,1.09-1,2.21,2.21,0,0,1,1.27-.45,1.2,1.2,0,0,1,.77.23.78.78,0,0,1,.27.61,2.06,2.06,0,0,1-.61,1.36,2.14,2.14,0,0,0-1.11-.38,2.74,2.74,0,0,0-1.75,1c0,.67-.05,1.31-.05,1.94a11.87,11.87,0,0,0,.29,3.28,4.7,4.7,0,0,1-1.41.22,1.74,1.74,0,0,1-1.12-.28,1.05,1.05,0,0,1-.31-.83c0-.18,0-.6,0-1.27s0-1.2,0-1.6c0-1.62,0-3-.12-4A4.43,4.43,0,0,1,28.72,69.46Z"/><path class="cls-1" d="M40.7,76.64a4.12,4.12,0,0,1-3,1.12,4.06,4.06,0,0,1-3-1.12,4,4,0,0,1-1.13-3,4.27,4.27,0,0,1,1.13-3.12,3.91,3.91,0,0,1,3-1.18,4,4,0,0,1,3,1.18,4.28,4.28,0,0,1,1.14,3.12A4,4,0,0,1,40.7,76.64ZM39.31,74a4.76,4.76,0,0,0-.43-2.15,1.26,1.26,0,0,0-2.32-.16,3.56,3.56,0,0,0-.41,1.84,3.71,3.71,0,0,0,.41,1.86,1.28,1.28,0,0,0,1.15.74,1.37,1.37,0,0,0,1.18-.59A2.58,2.58,0,0,0,39.31,74Z"/><path class="cls-1" d="M49.68,66.32a1.81,1.81,0,0,1-.6,1.19,1.52,1.52,0,0,0-1.17-.45,1.1,1.1,0,0,0-1,.45,2.87,2.87,0,0,0-.26,1.39v.65a22.31,22.31,0,0,0,2.24-.14,1.6,1.6,0,0,1,.12.7.86.86,0,0,1-.31.77,1.81,1.81,0,0,1-1,.23l-1.1,0v3.28a11.67,11.67,0,0,0,.3,3.09,5.35,5.35,0,0,1-1.24.14,2.57,2.57,0,0,1-1.24-.21.73.73,0,0,1-.34-.68c0-.12,0-.83,0-2.12s0-2.45,0-3.49c-.22,0-.63,0-1.25.11a2.19,2.19,0,0,1-.13-.77c0-.63.46-1,1.38-1a10.11,10.11,0,0,1,.07-1.32,4.51,4.51,0,0,1,.3-1.1,2.35,2.35,0,0,1,.61-.9,2.75,2.75,0,0,1,1.05-.56,4.83,4.83,0,0,1,1.57-.22C49,65.43,49.68,65.73,49.68,66.32Z"/><path class="cls-1" d="M54.06,69.34a3.76,3.76,0,0,1,2.18.63,2.12,2.12,0,0,1,.92,1.87q0,2.52-3.61,2.52c-.21,0-.6,0-1.17,0a1.83,1.83,0,0,0,.49,1.42,1.72,1.72,0,0,0,1.19.44,2.42,2.42,0,0,0,2-.82,1.88,1.88,0,0,1,.64.5,1.06,1.06,0,0,1,.24.64.93.93,0,0,1-.6.82,3.68,3.68,0,0,1-1.17.37,8.44,8.44,0,0,1-1.1.07,4.48,4.48,0,0,1-3.06-1,3.94,3.94,0,0,1-1.19-3.14,4.32,4.32,0,0,1,.65-2.39A3.86,3.86,0,0,1,52,69.78,4.81,4.81,0,0,1,54.06,69.34ZM53.93,71a1.34,1.34,0,0,0-1.07.55,2.52,2.52,0,0,0-.48,1.62l.67-.06a3.81,3.81,0,0,0,.56-.11,1.09,1.09,0,0,0,.53-.23,1.31,1.31,0,0,0,.3-.4,1.47,1.47,0,0,0,.13-.66.76.76,0,0,0-.18-.49A.58.58,0,0,0,53.93,71Z"/><path class="cls-1" d="M62.89,72.08a1.56,1.56,0,0,0-.48-.82,1.14,1.14,0,0,0-.75-.29,1,1,0,0,0-.66.21.68.68,0,0,0-.27.59.72.72,0,0,0,.4.65,3.33,3.33,0,0,0,1,.38q.57.15,1.14.36a2.25,2.25,0,0,1,1,.71,1.93,1.93,0,0,1,.39,1.25,2.22,2.22,0,0,1-1,2,4.43,4.43,0,0,1-2.43.67c-.29,0-.58,0-.86,0a7.4,7.4,0,0,1-1-.18,1.79,1.79,0,0,1-.88-.44,1,1,0,0,1-.34-.77c0-.61.46-1.09,1.38-1.43a1.5,1.5,0,0,0,.65.92,1.84,1.84,0,0,0,1,.31c.76,0,1.14-.28,1.14-.82,0-.26-.2-.47-.6-.64a9.72,9.72,0,0,0-1.32-.41A2.72,2.72,0,0,1,59,73.53a2,2,0,0,1-.6-1.52,2.27,2.27,0,0,1,1-1.94,3.93,3.93,0,0,1,2.32-.73,6.1,6.1,0,0,1,1.19.13,2.88,2.88,0,0,1,1.1.49,1.08,1.08,0,0,1,.49.9,1,1,0,0,1-.41.79A2.55,2.55,0,0,1,62.89,72.08Z"/><path class="cls-1" d="M70.3,72.08a1.56,1.56,0,0,0-.48-.82,1.12,1.12,0,0,0-.74-.29,1.05,1.05,0,0,0-.67.21.68.68,0,0,0-.27.59.72.72,0,0,0,.4.65,3.44,3.44,0,0,0,1,.38q.57.15,1.14.36a2.25,2.25,0,0,1,1,.71,1.93,1.93,0,0,1,.4,1.25,2.23,2.23,0,0,1-1,2,4.39,4.39,0,0,1-2.42.67c-.3,0-.59,0-.87,0a7.71,7.71,0,0,1-1-.18,1.79,1.79,0,0,1-.88-.44,1,1,0,0,1-.33-.77c0-.61.46-1.09,1.37-1.43a1.54,1.54,0,0,0,.65.92,1.86,1.86,0,0,0,1,.31c.76,0,1.14-.28,1.14-.82,0-.26-.2-.47-.6-.64a8.91,8.91,0,0,0-1.32-.41,2.72,2.72,0,0,1-1.32-.73,2,2,0,0,1-.6-1.52,2.27,2.27,0,0,1,1-1.94,4,4,0,0,1,2.32-.73,6.29,6.29,0,0,1,1.2.13,2.91,2.91,0,0,1,1.09.49,1.1,1.1,0,0,1,.5.9,1,1,0,0,1-.42.79A2.55,2.55,0,0,1,70.3,72.08Z"/><path class="cls-1" d="M74.65,68.75a1.48,1.48,0,0,1-1.09-.45,1.58,1.58,0,0,1-.46-1.15A1.48,1.48,0,0,1,73.58,66a1.54,1.54,0,0,1,1.11-.46,1.42,1.42,0,0,1,1.07.46,1.5,1.5,0,0,1,.46,1.12,1.53,1.53,0,0,1-.48,1.14A1.56,1.56,0,0,1,74.65,68.75Zm0,.71a2,2,0,0,1,1,.22,1,1,0,0,1,.36.87q0,.11-.06,1.5c0,.93-.06,1.62-.06,2.09a11.87,11.87,0,0,0,.29,3.28,4.7,4.7,0,0,1-1.41.22,1.74,1.74,0,0,1-1.12-.28,1.05,1.05,0,0,1-.31-.83c0-.18,0-.6,0-1.27s0-1.2,0-1.6c0-1.62,0-3-.12-4A4.43,4.43,0,0,1,74.69,69.46Z"/><path class="cls-1" d="M84.44,76.64a4.54,4.54,0,0,1-6,0,4.06,4.06,0,0,1-1.13-3,4.32,4.32,0,0,1,1.13-3.12,4.37,4.37,0,0,1,6,0,4.28,4.28,0,0,1,1.14,3.12A4,4,0,0,1,84.44,76.64ZM83.05,74a4.9,4.9,0,0,0-.42-2.15A1.32,1.32,0,0,0,81.45,71a1.27,1.27,0,0,0-1.14.7,3.56,3.56,0,0,0-.42,1.84,3.71,3.71,0,0,0,.42,1.86,1.26,1.26,0,0,0,1.14.74,1.36,1.36,0,0,0,1.18-.59A2.58,2.58,0,0,0,83.05,74Z"/><path class="cls-1" d="M86.74,69.68a4.62,4.62,0,0,1,1.33-.22c.82,0,1.29.34,1.41,1A3.46,3.46,0,0,1,92,69.36,2.79,2.79,0,0,1,93.9,70a2.41,2.41,0,0,1,.74,1.89s0,.43,0,1.22,0,1.4,0,1.81a9.33,9.33,0,0,0,.29,2.48,5,5,0,0,1-1.48.22c-.9,0-1.36-.35-1.36-1,0-.41,0-1.16,0-2.25s.06-1.75.06-2a1.64,1.64,0,0,0-.29-1.05.87.87,0,0,0-.72-.35,2.44,2.44,0,0,0-1.58.84c0,1.45,0,2.5,0,3.14,0,1,0,1.87.08,2.62-.37,0-.71.05-1,.05-1.14,0-1.7-.27-1.7-.81,0,0,0-.45,0-1.19s0-1.53,0-2.33A12.69,12.69,0,0,0,86.74,69.68Z"/><path class="cls-1" d="M97.72,72.25c-1-.18-1.5-.61-1.5-1.28,0-.45.33-.83,1-1.15a5.31,5.31,0,0,1,2.36-.48,4.18,4.18,0,0,1,2.63.68,2.73,2.73,0,0,1,.85,2.26c0,.1,0,.43,0,1s0,1,0,1.29a10,10,0,0,0,.32,2.92,5,5,0,0,1-1.32.21c-.82,0-1.3-.33-1.43-1a2.85,2.85,0,0,1-1,.76,3.25,3.25,0,0,1-1.28.28,2.15,2.15,0,0,1-1.57-.61A2.33,2.33,0,0,1,96,75.36,2.12,2.12,0,0,1,96.42,74a2.3,2.3,0,0,1,1-.67,12.82,12.82,0,0,1,3.06-.51,3.3,3.3,0,0,0-.23-1.45,1,1,0,0,0-1-.42,1.53,1.53,0,0,0-.91.36A2,2,0,0,0,97.72,72.25ZM100.51,74l-.78.15a4.73,4.73,0,0,0-.59.21.88.88,0,0,0-.44.38,1.09,1.09,0,0,0-.13.57.86.86,0,0,0,.21.63.64.64,0,0,0,.51.22,1.67,1.67,0,0,0,1.18-.43c0-.1,0-.27,0-.51C100.46,74.83,100.47,74.43,100.51,74Z"/><path class="cls-1" d="M106,65a1.92,1.92,0,0,1,1,.22,1,1,0,0,1,.35.86q0,.1-.06,1.5c0,.93-.06,1.63-.06,2.09v4.66a11.57,11.57,0,0,0,.29,3.13,4.61,4.61,0,0,1-1.41.22,1.73,1.73,0,0,1-1.11-.28,1.06,1.06,0,0,1-.32-.83c0-.18,0-.57,0-1.19s0-1.11,0-1.49V69.16c0-1.62,0-3-.11-4A4.14,4.14,0,0,1,106,65Z"/><path class="cls-1" d="M112.56,76.69a52.46,52.46,0,0,0,.26-5.72,38.5,38.5,0,0,0-.22-4.62,17.26,17.26,0,0,1,3-.2,11.06,11.06,0,0,1,2.68.29,7.11,7.11,0,0,1,2.19.92,4.37,4.37,0,0,1,1.53,1.8,6.49,6.49,0,0,1,.54,2.77A5.91,5.91,0,0,1,121,76.12a5.67,5.67,0,0,1-4.35,1.64A6.7,6.7,0,0,1,112.56,76.69Zm2.82-8.79c.05.67.07,1.46.07,2.38a45.69,45.69,0,0,1-.24,5.28A3.89,3.89,0,0,0,117,76,2.29,2.29,0,0,0,119,75a4.83,4.83,0,0,0,.7-2.69,5.11,5.11,0,0,0-.91-3.31,3.16,3.16,0,0,0-2.61-1.11A5.29,5.29,0,0,0,115.38,67.9Z"/><path class="cls-1" d="M127.81,69.34A3.78,3.78,0,0,1,130,70a2.11,2.11,0,0,1,.91,1.87q0,2.52-3.6,2.52c-.21,0-.61,0-1.17,0a1.86,1.86,0,0,0,.48,1.42,1.72,1.72,0,0,0,1.2.44,2.43,2.43,0,0,0,2-.82,1.75,1.75,0,0,1,.63.5,1,1,0,0,1,.25.64.93.93,0,0,1-.6.82,3.82,3.82,0,0,1-1.18.37,8.29,8.29,0,0,1-1.09.07,4.48,4.48,0,0,1-3.06-1,3.91,3.91,0,0,1-1.19-3.14,4.24,4.24,0,0,1,.65-2.39,3.86,3.86,0,0,1,1.6-1.42A4.81,4.81,0,0,1,127.81,69.34ZM127.67,71a1.37,1.37,0,0,0-1.07.55,2.58,2.58,0,0,0-.47,1.62l.67-.06a3.81,3.81,0,0,0,.56-.11,1.14,1.14,0,0,0,.53-.23,1.41,1.41,0,0,0,.43-1.06.72.72,0,0,0-.19-.49A.55.55,0,0,0,127.67,71Z"/><path class="cls-1" d="M138.08,69.34a1.88,1.88,0,0,1,1,.22.79.79,0,0,1,.33.72,11,11,0,0,1-.77,3.16,12.74,12.74,0,0,1-1.58,3.25,2.31,2.31,0,0,1-2,1,4.55,4.55,0,0,1-1.12-.15,29.69,29.69,0,0,0-1.27-4.29,11.55,11.55,0,0,0-1.47-3.06,2.41,2.41,0,0,1,1.63-.71,1.44,1.44,0,0,1,1.36,1,37.11,37.11,0,0,1,1.53,4.67,15.33,15.33,0,0,0,1.21-5,3,3,0,0,0-.05-.52A2.71,2.71,0,0,1,138.08,69.34Z"/><path class="cls-1" d="M144.59,69.34a3.78,3.78,0,0,1,2.18.63,2.11,2.11,0,0,1,.91,1.87q0,2.52-3.6,2.52c-.22,0-.61,0-1.17,0a1.86,1.86,0,0,0,.48,1.42,1.72,1.72,0,0,0,1.2.44,2.43,2.43,0,0,0,2-.82,1.75,1.75,0,0,1,.63.5,1,1,0,0,1,.25.64.93.93,0,0,1-.6.82,3.82,3.82,0,0,1-1.18.37,8.29,8.29,0,0,1-1.09.07,4.48,4.48,0,0,1-3.06-1,3.91,3.91,0,0,1-1.19-3.14A4.24,4.24,0,0,1,141,71.2a3.86,3.86,0,0,1,1.6-1.42A4.78,4.78,0,0,1,144.59,69.34ZM144.45,71a1.37,1.37,0,0,0-1.07.55,2.58,2.58,0,0,0-.47,1.62l.67-.06a3.81,3.81,0,0,0,.56-.11,1.14,1.14,0,0,0,.53-.23,1.41,1.41,0,0,0,.43-1.06.72.72,0,0,0-.19-.49A.55.55,0,0,0,144.45,71Z"/><path class="cls-1" d="M150.22,65a1.88,1.88,0,0,1,1,.22.93.93,0,0,1,.36.86q0,.1-.06,1.5c0,.93-.06,1.63-.06,2.09v4.66a11.17,11.17,0,0,0,.29,3.13,4.7,4.7,0,0,1-1.41.22,1.74,1.74,0,0,1-1.12-.28,1.05,1.05,0,0,1-.31-.83c0-.18,0-.57,0-1.19s0-1.11,0-1.49V69.16c0-1.62,0-3-.12-4A4.16,4.16,0,0,1,150.22,65Z"/><path class="cls-1" d="M160,76.64a4.55,4.55,0,0,1-6,0,4.06,4.06,0,0,1-1.13-3A4.32,4.32,0,0,1,154,70.52a4.38,4.38,0,0,1,6,0,4.28,4.28,0,0,1,1.14,3.12A4,4,0,0,1,160,76.64ZM158.61,74a4.9,4.9,0,0,0-.42-2.15,1.26,1.26,0,0,0-2.32-.16,3.56,3.56,0,0,0-.42,1.84,3.71,3.71,0,0,0,.42,1.86,1.28,1.28,0,0,0,1.15.74,1.37,1.37,0,0,0,1.18-.59A2.58,2.58,0,0,0,158.61,74Z"/><path class="cls-1" d="M162.3,69.77a2.91,2.91,0,0,1,1.35-.31,2.8,2.8,0,0,1,.63.06.94.94,0,0,1,.49.34,1.31,1.31,0,0,1,.27.79,2.57,2.57,0,0,1,2.28-1.31,2.73,2.73,0,0,1,2.29,1.08,4.48,4.48,0,0,1,.82,2.76,6.78,6.78,0,0,1-.33,2.13A4,4,0,0,1,169,77a2.81,2.81,0,0,1-1.94.72,2.7,2.7,0,0,1-1.92-.75c0,.07,0,.37,0,.92s0,.92,0,1.13,0,.52.05.93a8.34,8.34,0,0,0,.1,1,3.82,3.82,0,0,0,.17.72,5.73,5.73,0,0,1-1.29.14,2.36,2.36,0,0,1-1.24-.22.84.84,0,0,1-.33-.75c0-1.11,0-2.49,0-4.13s0-2.79,0-3.44A11.86,11.86,0,0,0,162.3,69.77Zm2.84,6a2.34,2.34,0,0,0,1.36.39,1.08,1.08,0,0,0,1-.81,4.73,4.73,0,0,0,.34-1.89,4,4,0,0,0-.33-1.86,1,1,0,0,0-.83-.61,2,2,0,0,0-1.56.86C165.14,72.8,165.14,74.11,165.14,75.75Z"/><path class="cls-1" d="M171.59,69.68a4.56,4.56,0,0,1,1.32-.22c.83,0,1.3.34,1.41,1a3.18,3.18,0,0,1,2.35-1.1,2.23,2.23,0,0,1,2.23,1.31,3.14,3.14,0,0,1,2.51-1.31,2.33,2.33,0,0,1,2.48,2.55s0,.43,0,1.22,0,1.4,0,1.81a9.33,9.33,0,0,0,.29,2.48,5,5,0,0,1-1.48.22c-.9,0-1.36-.35-1.36-1,0-.41,0-1.16.05-2.25s0-1.75,0-2a1.88,1.88,0,0,0-.23-1.05.74.74,0,0,0-.63-.35,2,2,0,0,0-1.38.84c0,1.45,0,2.5,0,3.14,0,1,0,1.87.09,2.62-.37,0-.71.05-1,.05-1.14,0-1.7-.27-1.7-.81,0-.06,0-.47,0-1.25s0-1.52,0-2.27v-1a1.74,1.74,0,0,0-.24-1,.75.75,0,0,0-.62-.34,2,2,0,0,0-1.38.84c0,1.45,0,2.5,0,3.14,0,1,0,1.87.09,2.62-.38,0-.71.05-1,.05-1.13,0-1.7-.27-1.7-.81,0,0,0-.45.05-1.19s0-1.53,0-2.33A12.69,12.69,0,0,0,171.59,69.68Z"/><path class="cls-1" d="M189.57,69.34a3.76,3.76,0,0,1,2.18.63,2.12,2.12,0,0,1,.92,1.87q0,2.52-3.61,2.52c-.21,0-.6,0-1.17,0a1.86,1.86,0,0,0,.48,1.42,1.76,1.76,0,0,0,1.2.44,2.43,2.43,0,0,0,2-.82,1.75,1.75,0,0,1,.63.5,1,1,0,0,1,.25.64.93.93,0,0,1-.6.82,3.76,3.76,0,0,1-1.17.37,8.44,8.44,0,0,1-1.1.07,4.48,4.48,0,0,1-3.06-1,3.91,3.91,0,0,1-1.19-3.14,4.32,4.32,0,0,1,.65-2.39,3.86,3.86,0,0,1,1.6-1.42A4.81,4.81,0,0,1,189.57,69.34ZM189.44,71a1.34,1.34,0,0,0-1.07.55,2.52,2.52,0,0,0-.48,1.62l.67-.06a3.81,3.81,0,0,0,.56-.11,1.09,1.09,0,0,0,.53-.23,1.31,1.31,0,0,0,.3-.4,1.47,1.47,0,0,0,.13-.66.72.72,0,0,0-.19-.49A.55.55,0,0,0,189.44,71Z"/><path class="cls-1" d="M193.82,69.68a4.68,4.68,0,0,1,1.33-.22c.83,0,1.3.34,1.41,1a3.5,3.5,0,0,1,2.52-1.1A2.76,2.76,0,0,1,201,70a2.38,2.38,0,0,1,.75,1.89s0,.43,0,1.22,0,1.4,0,1.81a8.93,8.93,0,0,0,.29,2.48,5.06,5.06,0,0,1-1.48.22c-.91,0-1.36-.35-1.36-1,0-.41,0-1.16.05-2.25s0-1.75,0-2a1.64,1.64,0,0,0-.28-1.05.9.9,0,0,0-.72-.35,2.44,2.44,0,0,0-1.59.84c0,1.45,0,2.5,0,3.14,0,1,0,1.87.08,2.62-.37,0-.7.05-1,.05-1.13,0-1.7-.27-1.7-.81,0,0,0-.45,0-1.19s.05-1.53.05-2.33A12.2,12.2,0,0,0,193.82,69.68Z"/><path class="cls-1" d="M204.28,74.51v-3.4a10.53,10.53,0,0,0-1.52.12,2.1,2.1,0,0,1-.13-.71c0-.67.46-1,1.38-1h.23c0-.69-.05-1.27-.1-1.73a3.23,3.23,0,0,1,1.24-.22,4.51,4.51,0,0,1,.72,0,.93.93,0,0,1,.51.28.91.91,0,0,1,.25.7c0,.18,0,.5-.05,1a22.84,22.84,0,0,0,2.81-.14,1.93,1.93,0,0,1,.11.73c0,.61-.33.92-1,1q-.64,0-1.95,0c0,1.12-.06,2.24-.06,3.37,0,.27,0,.48,0,.62a2.58,2.58,0,0,0,.1.52.73.73,0,0,0,.27.44.87.87,0,0,0,.5.13,1.83,1.83,0,0,0,1.36-.51,1.36,1.36,0,0,1,.7,1,.89.89,0,0,1-.59.77,3,3,0,0,1-1.4.3,3.5,3.5,0,0,1-2.63-.82A3.38,3.38,0,0,1,204.28,74.51Z"/><path class="cls-2" d="M19.76,100.13l0-2.67v-3.2a24.86,24.86,0,0,0-.23-3.72q1.71-.15,3.75-.15a5.74,5.74,0,0,1,2.33.24.59.59,0,0,1,.15.46,1.85,1.85,0,0,1-.13.66,9.6,9.6,0,0,0-3-.33c-.56,0-1.15,0-1.76,0,0,.47.07,1.6.07,3.4h1.26c.89,0,1.54,0,1.92-.07a1.23,1.23,0,0,1,.06.46.5.5,0,0,1-.17.45.94.94,0,0,1-.56.15H21a40.34,40.34,0,0,0,.11,4.19c.47,0,.85,0,1.13,0a9.89,9.89,0,0,0,3.44-.37,1.65,1.65,0,0,1,.13.66.63.63,0,0,1-.14.46,6.39,6.39,0,0,1-2.47.24c-1.45,0-2.33,0-2.65,0a.8.8,0,0,1-.63-.23A1.18,1.18,0,0,1,19.76,100.13Z"/><path class="cls-2" d="M31.52,93.45c.6.1.9.31.9.6,0,.49-.69,1.5-2.07,3.06A11.2,11.2,0,0,0,33,100.58q-.46.63-.84.63a.9.9,0,0,1-.7-.45c-.41-.57-1-1.51-1.82-2.82a16.77,16.77,0,0,0-1.3,1.72,5.44,5.44,0,0,0-.77,1.55c-.57-.1-.86-.3-.86-.61a1.91,1.91,0,0,1,.53-1.07l.74-.92c.15-.18.38-.45.71-.8s.49-.55.52-.57a11.51,11.51,0,0,0-2.45-3.19c.33-.4.62-.6.86-.6a.93.93,0,0,1,.71.43c.51.76,1,1.59,1.6,2.5A14.49,14.49,0,0,0,31,94.74,4.18,4.18,0,0,0,31.52,93.45Z"/><path class="cls-2" d="M34.43,104.18l0-7.12a12.09,12.09,0,0,0-.3-3.37,1.44,1.44,0,0,1,.62-.13c.46,0,.69.27.69.8A4.08,4.08,0,0,1,38,93.45a2.63,2.63,0,0,1,2,.85,3.81,3.81,0,0,1,.77,2.6,4.38,4.38,0,0,1-1.52,3.68,2.86,2.86,0,0,1-1.83.63,3.34,3.34,0,0,1-1.88-.55,29.76,29.76,0,0,0,.11,3.37,9.11,9.11,0,0,0,.21.94,1.83,1.83,0,0,1-.7.12.68.68,0,0,1-.57-.2A1.26,1.26,0,0,1,34.43,104.18Zm1.14-4.35a3.46,3.46,0,0,0,1.92.48,1.73,1.73,0,0,0,1.23-.48,3.6,3.6,0,0,0,.91-2.69A3.34,3.34,0,0,0,39.08,95a1.86,1.86,0,0,0-1.53-.68,3.19,3.19,0,0,0-2,.88C35.56,97.57,35.57,99.11,35.57,99.83Z"/><path class="cls-2" d="M42.55,100.26l0-4.57V93.83a44.16,44.16,0,0,0-.13-4.62,2.48,2.48,0,0,1,.56,0c.49,0,.74.2.74.61,0,0,0,.32,0,.85-.06,1.94-.1,3.5-.1,4.7v2.49a12.14,12.14,0,0,0,.31,3.16,1.74,1.74,0,0,1-.67.12.72.72,0,0,1-.56-.19A1,1,0,0,1,42.55,100.26Z"/><path class="cls-2" d="M52.58,97.33a4,4,0,0,1-1,2.82,3.53,3.53,0,0,1-5,0,4.62,4.62,0,0,1,0-5.64,3.53,3.53,0,0,1,5,0A4.05,4.05,0,0,1,52.58,97.33Zm-3.48,3a2.12,2.12,0,0,0,1.73-.75,3.11,3.11,0,0,0,.63-2.06,3.82,3.82,0,0,0-.64-2.24,2,2,0,0,0-1.75-.92,2.12,2.12,0,0,0-1.72.76,3.21,3.21,0,0,0-.61,2.07,3.9,3.9,0,0,0,.62,2.23A2,2,0,0,0,49.1,100.31Z"/><path class="cls-2" d="M54.34,100.18l0-2.83c0-1.52,0-2.77-.11-3.74a2.36,2.36,0,0,1,.54,0c.46,0,.69.2.69.61,0,0,0,.09,0,.21s0,.24,0,.35a3.44,3.44,0,0,1,.86-.89,1.71,1.71,0,0,1,1-.39c.58,0,.87.2.87.62a1.3,1.3,0,0,1-.32.72,1.2,1.2,0,0,0-.79-.3,1.42,1.42,0,0,0-.88.35,2.82,2.82,0,0,0-.75.93c0,.36,0,1.15,0,2.36a10.49,10.49,0,0,0,.3,2.84,1.76,1.76,0,0,1-.68.12.64.64,0,0,1-.55-.2A1.18,1.18,0,0,1,54.34,100.18Z"/><path class="cls-2" d="M62.63,93.45a2.59,2.59,0,0,1,1.81.63,1.83,1.83,0,0,1,.7,1.37,2.44,2.44,0,0,1-.23,1.15,1.75,1.75,0,0,1-.58.65,2.56,2.56,0,0,1-1,.37,17.9,17.9,0,0,1-3.07.19,3.3,3.3,0,0,0,.69,1.83,2.08,2.08,0,0,0,1.69.67,1.66,1.66,0,0,0,1.58-.83c.43.17.64.4.64.7s-.24.55-.72.74a4.46,4.46,0,0,1-1.63.29,3.33,3.33,0,0,1-2.46-1,4.66,4.66,0,0,1,.1-5.79A3.55,3.55,0,0,1,62.63,93.45Zm-.07.88a2.27,2.27,0,0,0-1.64.65,2.82,2.82,0,0,0-.71,2,9,9,0,0,0,3-.33,1.62,1.62,0,0,0,.55-.42,1,1,0,0,0,.23-.72,1.11,1.11,0,0,0-.42-.84A1.51,1.51,0,0,0,62.56,94.33Z"/><path class="cls-2" d="M73.43,96.77a1.74,1.74,0,0,1-.51,1.28,1.62,1.62,0,0,1-1.23.52,1.65,1.65,0,0,1-1.24-.52,1.74,1.74,0,0,1-.51-1.28,1.78,1.78,0,0,1,.52-1.31,1.65,1.65,0,0,1,1.24-.54,1.59,1.59,0,0,1,1.22.54A1.81,1.81,0,0,1,73.43,96.77Z"/><path class="cls-2" d="M78.64,100.13l0-2.67V94.15c0-1.5,0-2.74-.11-3.71a4,4,0,0,1,.66,0c.52,0,.78.2.78.61,0,.06,0,.28,0,.64-.06,1.11-.1,2.09-.1,2.94V96a36.6,36.6,0,0,0,.12,4c.44,0,.8,0,1.05,0a8.77,8.77,0,0,0,3.22-.37,2.17,2.17,0,0,1,.11.66.63.63,0,0,1-.14.46,5.67,5.67,0,0,1-2.32.24c-1.37,0-2.2,0-2.51,0a.77.77,0,0,1-.61-.23A1.19,1.19,0,0,1,78.64,100.13Z"/><path class="cls-2" d="M88.66,93.45a2.59,2.59,0,0,1,1.81.63,1.83,1.83,0,0,1,.7,1.37A2.58,2.58,0,0,1,91,96.6a1.77,1.77,0,0,1-.59.65,2.56,2.56,0,0,1-1,.37,17.9,17.9,0,0,1-3.07.19A3.3,3.3,0,0,0,87,99.64a2.08,2.08,0,0,0,1.69.67,1.68,1.68,0,0,0,1.59-.83c.42.17.64.4.64.7s-.25.55-.73.74a4.46,4.46,0,0,1-1.63.29,3.33,3.33,0,0,1-2.46-1,4.66,4.66,0,0,1,.1-5.79A3.55,3.55,0,0,1,88.66,93.45Zm-.07.88A2.27,2.27,0,0,0,87,95a2.82,2.82,0,0,0-.71,2,9,9,0,0,0,3-.33,1.62,1.62,0,0,0,.55-.42,1,1,0,0,0,.24-.72,1.12,1.12,0,0,0-.43-.84A1.51,1.51,0,0,0,88.59,94.33Z"/><path class="cls-2" d="M98.16,96.05l0,2.16a9.47,9.47,0,0,0,.3,2.76,1.41,1.41,0,0,1-.61.12.66.66,0,0,1-.51-.16,1.09,1.09,0,0,1-.19-.54,3.16,3.16,0,0,1-2.05.82c-1.64,0-2.46-.75-2.46-2.26a1.68,1.68,0,0,1,.38-1.2,2.5,2.5,0,0,1,1.06-.58,16.5,16.5,0,0,1,3-.43,3.67,3.67,0,0,0-.34-1.88,1.6,1.6,0,0,0-1.42-.52,1.83,1.83,0,0,0-.93.29,1.78,1.78,0,0,0-.72.83c-.49-.09-.73-.31-.73-.64a1.13,1.13,0,0,1,.76-1,4.53,4.53,0,0,1,2-.37,2.73,2.73,0,0,1,1.84.56A2.64,2.64,0,0,1,98.16,96.05Zm-1.09,1.51-.69.08-.63.08a5.61,5.61,0,0,0-.58.09l-.47.13a1.41,1.41,0,0,0-.42.18l-.28.21a.75.75,0,0,0-.27.62,1.27,1.27,0,0,0,.42,1.06,1.57,1.57,0,0,0,1,.35A2.55,2.55,0,0,0,97,99.64c0-.15,0-.42,0-.82S97,98,97.07,97.56Z"/><path class="cls-2" d="M100.35,100.18l0-2.83c0-1.52,0-2.77-.12-3.74a2.45,2.45,0,0,1,.55,0c.46,0,.69.2.69.61,0,0,0,.09,0,.21s0,.24,0,.35a3.29,3.29,0,0,1,.86-.89,1.69,1.69,0,0,1,1-.39c.58,0,.86.2.86.62a1.23,1.23,0,0,1-.32.72,1.16,1.16,0,0,0-.78-.3,1.4,1.4,0,0,0-.88.35,2.7,2.7,0,0,0-.75.93c0,.36,0,1.15,0,2.36a10,10,0,0,0,.31,2.84,1.79,1.79,0,0,1-.68.12.66.66,0,0,1-.56-.2A1.26,1.26,0,0,1,100.35,100.18Z"/><path class="cls-2" d="M110.29,100.28l.09-4.15a1.82,1.82,0,0,0-.44-1.34,1.48,1.48,0,0,0-1.12-.45,3.39,3.39,0,0,0-2.15.88q0,2.18,0,3.45c0,.85,0,1.64.1,2.36a3.1,3.1,0,0,1-.54,0c-.48,0-.72-.2-.72-.61,0,0,0-.43,0-1.18s0-1.48,0-2.21a11.56,11.56,0,0,0-.31-3.39,1.53,1.53,0,0,1,.58-.13c.49,0,.74.27.74.8a4.28,4.28,0,0,1,1.23-.64,4.64,4.64,0,0,1,1.58-.27,2,2,0,0,1,1.43.53,2.2,2.2,0,0,1,.6,1.72l0,2.85a8.6,8.6,0,0,0,.28,2.42,2,2,0,0,1-.68.12.76.76,0,0,1-.55-.18A.88.88,0,0,1,110.29,100.28Z"/><path class="cls-2" d="M120.22,96.77a1.73,1.73,0,0,1-.5,1.28,1.73,1.73,0,0,1-2.47,0,1.74,1.74,0,0,1-.51-1.28,1.78,1.78,0,0,1,.52-1.31,1.65,1.65,0,0,1,1.24-.54,1.61,1.61,0,0,1,1.22.54A1.8,1.8,0,0,1,120.22,96.77Z"/><path class="cls-2" d="M133.23,99.69c0,.38-.3.73-.91,1a4.81,4.81,0,0,1-2.26.48,4.65,4.65,0,0,1-3.61-1.51,5.78,5.78,0,0,1-1.36-4,5.51,5.51,0,0,1,1.36-4,4.79,4.79,0,0,1,3.68-1.45,4.07,4.07,0,0,1,2.09.5,1.45,1.45,0,0,1,.85,1.24c0,.44-.3.71-.91.8a2.24,2.24,0,0,0-1-1.17,2.69,2.69,0,0,0-1.39-.4,3,3,0,0,0-2.46,1.2,4.84,4.84,0,0,0-.95,3.1,5.65,5.65,0,0,0,1,3.3,3.07,3.07,0,0,0,2.67,1.38,2.85,2.85,0,0,0,2.07-.77c0-1.33-.06-2.41-.12-3.23a3.68,3.68,0,0,1,.58,0c.52,0,.78.21.78.61l0,1C133.25,98.5,133.23,99.12,133.23,99.69Z"/><path class="cls-2" d="M135.18,100.18l0-2.83c0-1.52,0-2.77-.12-3.74a2.5,2.5,0,0,1,.55,0c.46,0,.69.2.69.61,0,0,0,.09,0,.21s0,.24,0,.35a3.29,3.29,0,0,1,.86-.89,1.69,1.69,0,0,1,1-.39c.58,0,.86.2.86.62a1.23,1.23,0,0,1-.32.72,1.16,1.16,0,0,0-.78-.3,1.4,1.4,0,0,0-.88.35,2.7,2.7,0,0,0-.75.93c0,.36,0,1.15,0,2.36a10,10,0,0,0,.31,2.84,1.79,1.79,0,0,1-.68.12.66.66,0,0,1-.56-.2A1.26,1.26,0,0,1,135.18,100.18Z"/><path class="cls-2" d="M146.43,97.33a4,4,0,0,1-1,2.82,3.53,3.53,0,0,1-5,0,4.62,4.62,0,0,1,0-5.64,3.53,3.53,0,0,1,5,0A4.05,4.05,0,0,1,146.43,97.33Zm-3.48,3a2.15,2.15,0,0,0,1.74-.75,3.16,3.16,0,0,0,.62-2.06,3.82,3.82,0,0,0-.64-2.24,2,2,0,0,0-1.74-.92,2.1,2.1,0,0,0-1.72.76,3.21,3.21,0,0,0-.62,2.07,3.83,3.83,0,0,0,.63,2.23A2,2,0,0,0,143,100.31Z"/><path class="cls-2" d="M157.1,93.45a.52.52,0,0,1,.6.59,7.77,7.77,0,0,1-.28,1.68c-.19.72-.42,1.44-.68,2.14A7.78,7.78,0,0,1,154.9,101a.8.8,0,0,1-.43.12,2.56,2.56,0,0,1-.47,0,36,36,0,0,0-1.26-4.58,13.1,13.1,0,0,1-1.84,4,3.31,3.31,0,0,1-.49.5.74.74,0,0,1-.42.12,2.56,2.56,0,0,1-.47,0,33.61,33.61,0,0,0-1.12-4.18A9.2,9.2,0,0,0,147.1,94a1.38,1.38,0,0,1,.88-.43c.27,0,.48.18.64.56s.48,1.35.87,2.61.67,2.32.86,3.19a10.46,10.46,0,0,0,1.2-2.68,10.29,10.29,0,0,0,.61-3.17,2.76,2.76,0,0,0,0-.51,1.44,1.44,0,0,1,.51-.08c.4,0,.6.21.6.64s0,.67,0,.75a10.26,10.26,0,0,1,.85,2.13c.32,1,.58,2,.78,2.92a10.46,10.46,0,0,0,1.2-2.68,10.29,10.29,0,0,0,.61-3.17,2.76,2.76,0,0,0,0-.51A1.44,1.44,0,0,1,157.1,93.45Z"/></svg>