<?xml version="1.0" encoding="utf-8"?>
<!-- Generator: Adobe Illustrator 22.1.0, SVG Export Plug-In . SVG Version: 6.00 Build 0)  -->
<svg version="1.1" id="Layer_1" xmlns="http://www.w3.org/2000/svg" xmlns:xlink="http://www.w3.org/1999/xlink" x="0px" y="0px"
	 viewBox="0 0 450 200" style="enable-background:new 0 0 450 200;" xml:space="preserve">
<style type="text/css">
	.st0{fill:#73BF44;}
	.st1{fill:#8E53A1;}
	.st2{fill:#2584C6;}
	.st3{fill:#818181;}
	.st4{fill:#2584C5;}
	.st5{fill:#1C6EA9;}
	.st6{fill:#005482;}
	.st7{fill:#7FC347;}
</style>
<g>
	<path class="st0" d="M24.1,142.7c-3,0-5.5-2.4-5.5-5.5V89.8c0-3,2.4-5.5,5.5-5.5s5.5,2.4,5.5,5.5v47.5
		C29.5,140.3,27.1,142.7,24.1,142.7z"/>
</g>
<g>
	<path class="st0" d="M30,71.7c-3.1,0-5.6-2.5-5.6-5.6V17.3c0-3.1,2.5-5.6,5.6-5.6s5.6,2.5,5.6,5.6v48.8
		C35.6,69.2,33.1,71.7,30,71.7z"/>
</g>
<g>
	<path class="st1" d="M52.6,142.6H24c-3.1,0-5.5-2.5-5.5-5.5c0-3.1,2.5-5.5,5.5-5.5h28.5c3.1,0,5.5,2.5,5.5,5.5
		C58.1,140.1,55.6,142.6,52.6,142.6z"/>
</g>
<g>
	<path class="st2" d="M68.7,143.5c-3.1,0-5.7-2.6-5.7-5.7V88.2c0-3.1,2.5-5.7,5.7-5.7s5.7,2.6,5.7,5.7v49.6
		C74.4,140.9,71.9,143.5,68.7,143.5z"/>
</g>
<g>
	<path class="st1" d="M101.6,93.9H68.7c-3.1,0-5.7-2.6-5.7-5.7c0-3.1,2.5-5.7,5.7-5.7h32.9c3.1,0,5.7,2.6,5.7,5.7
		C107.3,91.3,104.8,93.9,101.6,93.9z"/>
</g>
<g>
	<path class="st0" d="M101.6,143.5H68.7c-3.1,0-5.7-2.6-5.7-5.7c0-3.1,2.5-5.7,5.7-5.7h32.9c3.1,0,5.7,2.6,5.7,5.7
		C107.3,140.9,104.8,143.5,101.6,143.5z"/>
</g>
<g>
	<path class="st3" d="M96.8,118.7H68.7c-3.1,0-5.7-2.6-5.7-5.7c0-3.1,2.5-5.7,5.7-5.7h28.1c3.1,0,5.7,2.6,5.7,5.7
		C102.5,116.1,100,118.7,96.8,118.7z"/>
</g>
<g>
	<g>
		<path class="st2" d="M113.9,143.5c-0.9,0-1.7-0.2-2.6-0.6c-2.8-1.4-3.9-4.9-2.5-7.7l25.2-49.6c1.4-2.8,4.9-3.9,7.7-2.5
			c2.8,1.4,3.9,4.9,2.5,7.7L119,140.3C118,142.3,116,143.5,113.9,143.5z"/>
	</g>
	<g>
		<path class="st0" d="M164.3,143.5c-2.1,0-4.1-1.1-5.1-3.1l-25.2-49.6c-1.4-2.8-0.3-6.2,2.5-7.7c2.8-1.4,6.2-0.3,7.7,2.5l25.2,49.6
			c1.4,2.8,0.3,6.2-2.5,7.7C166.1,143.3,165.2,143.5,164.3,143.5z"/>
	</g>
</g>
<g>
	<path class="st1" d="M158.7,132.3h-39.2c-3.1,0-5.7-2.6-5.7-5.7s2.6-5.7,5.7-5.7h39.2c3.1,0,5.7,2.6,5.7,5.7
		S161.9,132.3,158.7,132.3z"/>
</g>
<g>
	<g>
		<path class="st1" d="M176.3,143.5c-3.1,0-5.7-2.6-5.7-5.7V88.2c0-3.1,2.6-5.7,5.7-5.7c3.1,0,5.7,2.6,5.7,5.7v49.6
			C182,140.9,179.5,143.5,176.3,143.5z"/>
	</g>
</g>
<g>
	<path class="st3" d="M198.7,122.9h-22.4c-3.1,0-5.7-2.6-5.7-5.7c0-3.1,2.6-5.7,5.7-5.7h22.4c3.1,0,5.7,2.6,5.7,5.7
		C204.4,120.4,201.8,122.9,198.7,122.9z"/>
</g>
<g>
	<path class="st4" d="M200.1,93.9h-23.9c-3.1,0-5.7-2.6-5.7-5.7s2.6-5.7,5.7-5.7h23.9c3.1,0,5.7,2.6,5.7,5.7S203.3,93.9,200.1,93.9z
		"/>
</g>
<g>
	<path class="st4" d="M214.6,143.5c-1.7,0-3.4-0.8-4.5-2.2l-15.9-20.6c-1.9-2.5-1.5-6.1,1-8c2.5-1.9,6.1-1.5,8,1l15.9,20.6
		c1.9,2.5,1.5,6.1-1,8C217,143.1,215.8,143.5,214.6,143.5z"/>
</g>
<g>
	<path class="st0" d="M200.1,122.9h-1.4c-3.1,0-5.7-2.6-5.7-5.7c0-3.1,2.6-5.7,5.7-5.7h1.4c4.8,0,8.8-4,8.8-8.8
		c0-4.8-3.9-8.8-8.8-8.8c-3.1,0-5.7-2.6-5.7-5.7s2.6-5.7,5.7-5.7c11.1,0,20.2,9.1,20.2,20.2C220.3,113.9,211.2,122.9,200.1,122.9z"
		/>
</g>
<path class="st4" d="M270.4,143.5c-1.6,0-3.2-0.7-4.3-2L224,91.9c-2-2.4-1.7-6,0.7-8c2.4-2,6-1.7,8,0.7l42.1,49.6c2,2.4,1.7,6-0.7,8
	C273,143,271.7,143.5,270.4,143.5z"/>
<g>
	<path class="st0" d="M270.5,143.5c-3.1,0-5.7-2.6-5.7-5.7V88.2c0-3.1,2.6-5.7,5.7-5.7c3.1,0,5.7,2.6,5.7,5.7v49.6
		C276.2,140.9,273.6,143.5,270.5,143.5z"/>
</g>
<g>
	<path class="st1" d="M228.3,143.5c-3.1,0-5.7-2.6-5.7-5.7V88.2c0-3.1,2.6-5.7,5.7-5.7s5.7,2.6,5.7,5.7v49.6
		C234,140.9,231.4,143.5,228.3,143.5z"/>
</g>
<g>
	<g>
		<path class="st4" d="M289.2,143.5c-3.1,0-5.7-2.6-5.7-5.7V88.2c0-3.1,2.6-5.7,5.7-5.7s5.7,2.6,5.7,5.7v49.6
			C294.9,140.9,292.4,143.5,289.2,143.5z"/>
	</g>
</g>
<path class="st4" d="M350.1,143.5c-1.6,0-3.2-0.7-4.3-2l-42.1-49.6c-2-2.4-1.7-6,0.7-8c2.4-2,6-1.7,8,0.7l42.1,49.6
	c2,2.4,1.7,6-0.7,8C352.8,143,351.4,143.5,350.1,143.5z"/>
<g>
	<path class="st0" d="M350.2,143.5c-3.1,0-5.7-2.6-5.7-5.7V88.2c0-3.1,2.6-5.7,5.7-5.7c3.1,0,5.7,2.6,5.7,5.7v49.6
		C355.9,140.9,353.3,143.5,350.2,143.5z"/>
</g>
<g>
	<path class="st1" d="M308,143.5c-3.1,0-5.7-2.6-5.7-5.7V88.2c0-3.1,2.6-5.7,5.7-5.7c3.1,0,5.7,2.6,5.7,5.7v49.6
		C313.7,140.9,311.2,143.5,308,143.5z"/>
</g>
<g>
	<path class="st2" d="M366.4,118.5c-3.1,0-5.5-2.5-5.5-5.5c0-16.8,13.7-30.5,30.6-30.5c3.1,0,5.5,2.5,5.5,5.5s-2.5,5.5-5.5,5.5
		c-10.8,0-19.5,8.7-19.5,19.4C371.9,116,369.4,118.5,366.4,118.5z"/>
</g>
<g>
	<path class="st1" d="M391.4,143.5c-16.9,0-30.6-13.7-30.6-30.5c0-3.1,2.5-5.5,5.5-5.5s5.5,2.5,5.5,5.5c0,10.7,8.8,19.4,19.5,19.4
		c3.1,0,5.5,2.5,5.5,5.5S394.5,143.5,391.4,143.5z"/>
</g>
<g>
	<path class="st5" d="M391.4,143.5c-3.1,0-5.5-2.5-5.5-5.5s2.5-5.5,5.5-5.5c5.2,0,10.4-2,13.9-5.3c2.2-2.1,5.7-2,7.8,0.2
		c2.1,2.2,2,5.7-0.2,7.8C407.4,140.4,399.3,143.5,391.4,143.5z"/>
</g>
<g>
	<path class="st0" d="M408.8,100.5c-1.4,0-2.8-0.5-3.8-1.5c-3.7-3.5-8.5-5.4-13.5-5.4c-3.1,0-5.5-2.5-5.5-5.5s2.5-5.5,5.5-5.5
		c8,0,15.5,3,21.2,8.5c2.2,2.1,2.3,5.6,0.2,7.8C411.7,99.9,410.2,100.5,408.8,100.5z"/>
</g>
<g>
	<path class="st0" d="M409.1,136.7c-3.1,0-5.5-2.5-5.5-5.5v-17.7c0-3.1,2.5-5.5,5.5-5.5c3.1,0,5.5,2.5,5.5,5.5v17.7
		C414.6,134.2,412.1,136.7,409.1,136.7z"/>
</g>
<g>
	<path class="st3" d="M409.1,119h-19.7c-3.1,0-5.5-2.5-5.5-5.5s2.5-5.5,5.5-5.5h19.7c3.1,0,5.5,2.5,5.5,5.5S412.2,119,409.1,119z"/>
</g>
<g>
	<path class="st1" d="M50.8,23.1H9.2c-3.1,0-5.7-2.6-5.7-5.7s2.6-5.7,5.7-5.7h41.6c3.1,0,5.7,2.6,5.7,5.7S54,23.1,50.8,23.1z"/>
</g>
<g>
	<path class="st2" d="M66.9,72.7c-3.1,0-5.7-2.6-5.7-5.7V17.4c0-3.1,2.5-5.7,5.7-5.7c3.1,0,5.7,2.6,5.7,5.7V67
		C72.6,70.1,70.1,72.7,66.9,72.7z"/>
</g>
<g>
	<path class="st1" d="M99.8,23.1H66.9c-3.1,0-5.7-2.6-5.7-5.7s2.5-5.7,5.7-5.7h32.9c3.1,0,5.7,2.6,5.7,5.7S103,23.1,99.8,23.1z"/>
</g>
<g>
	<path class="st0" d="M99.8,72.7H66.9c-3.1,0-5.7-2.6-5.7-5.7s2.5-5.7,5.7-5.7h32.9c3.1,0,5.7,2.6,5.7,5.7S103,72.7,99.8,72.7z"/>
</g>
<g>
	<path class="st3" d="M95,47.9H66.9c-3.1,0-5.7-2.6-5.7-5.7s2.5-5.7,5.7-5.7H95c3.1,0,5.7,2.6,5.7,5.7S98.2,47.9,95,47.9z"/>
</g>
<g>
	<g>
		<path class="st2" d="M113.3,73.8c-0.9,0-1.7-0.2-2.6-0.6c-2.8-1.4-3.9-4.9-2.5-7.7l25.2-49.6c1.4-2.8,4.9-3.9,7.7-2.5
			c2.8,1.4,3.9,4.9,2.5,7.7l-25.2,49.6C117.4,72.7,115.4,73.8,113.3,73.8z"/>
	</g>
	<g>
		<path class="st0" d="M163.7,73.8c-2.1,0-4.1-1.1-5.1-3.1l-25.2-49.6c-1.4-2.8-0.3-6.2,2.5-7.7c2.8-1.4,6.2-0.3,7.7,2.5l25.2,49.6
			c1.4,2.8,0.3,6.2-2.5,7.7C165.4,73.6,164.6,73.8,163.7,73.8z"/>
	</g>
</g>
<g>
	<path class="st1" d="M158.1,62.7h-39.2c-3.1,0-5.7-2.6-5.7-5.7s2.6-5.7,5.7-5.7h39.2c3.1,0,5.7,2.6,5.7,5.7S161.3,62.7,158.1,62.7z
		"/>
</g>
<g>
	<path class="st2" d="M171.9,46.5c-3,0-5.5-2.5-5.5-5.5c0-16.8,13.7-30.5,30.5-30.5c3,0,5.5,2.5,5.5,5.5s-2.5,5.5-5.5,5.5
		c-10.7,0-19.4,8.7-19.4,19.4C177.4,44,174.9,46.5,171.9,46.5z"/>
</g>
<g>
	<path class="st1" d="M196.8,71.5c-16.8,0-30.5-13.7-30.5-30.5c0-3.1,2.5-5.5,5.5-5.5c3,0,5.5,2.5,5.5,5.5
		c0,10.7,8.7,19.4,19.4,19.4c3,0,5.5,2.5,5.5,5.5S199.9,71.5,196.8,71.5z"/>
</g>
<g>
	<path class="st0" d="M196.8,71.5c-3,0-5.5-2.5-5.5-5.5s2.5-5.5,5.5-5.5c5,0,9.7-1.9,13.3-5.3c2.2-2.1,5.7-2,7.8,0.2s2,5.7-0.2,7.8
		C212,68.6,204.6,71.5,196.8,71.5z"/>
</g>
<g>
	<path class="st0" d="M214.1,28.5c-1.4,0-2.8-0.5-3.8-1.5c-3.6-3.5-8.4-5.4-13.5-5.4c-3,0-5.5-2.5-5.5-5.5s2.5-5.5,5.5-5.5
		c7.9,0,15.4,3,21.1,8.5c2.2,2.1,2.3,5.6,0.1,7.8C217,28,215.6,28.5,214.1,28.5z"/>
</g>
<g>
	<path class="st1" d="M229.4,72.7c-3.1,0-5.7-2.6-5.7-5.7V17.4c0-3.1,2.6-5.7,5.7-5.7c3.1,0,5.7,2.6,5.7,5.7V67
		C235.1,70.1,232.6,72.7,229.4,72.7z"/>
</g>
<g>
	<path class="st0" d="M269.3,72.7c-3.1,0-5.7-2.6-5.7-5.7V17.4c0-3.1,2.6-5.7,5.7-5.7c3.1,0,5.7,2.6,5.7,5.7V67
		C275,70.1,272.5,72.7,269.3,72.7z"/>
</g>
<g>
	<path class="st4" d="M269.4,47.9h-40c-3.1,0-5.7-2.6-5.7-5.7s2.6-5.7,5.7-5.7h40c3.1,0,5.7,2.6,5.7,5.7S272.5,47.9,269.4,47.9z"/>
</g>
<g>
	<g>
		<path class="st4" d="M289.2,72.7c-3.1,0-5.7-2.6-5.7-5.7V17.4c0-3.1,2.6-5.7,5.7-5.7s5.7,2.6,5.7,5.7V67
			C294.9,70.1,292.4,72.7,289.2,72.7z"/>
	</g>
</g>
<g>
	<path class="st4" d="M350.1,72.7c-1.6,0-3.2-0.7-4.3-2l-42.1-49.6c-2-2.4-1.7-6,0.7-8c2.4-2,6-1.7,8,0.7l42.1,49.6
		c2,2.4,1.7,6-0.7,8C352.8,72.2,351.4,72.7,350.1,72.7z"/>
</g>
<g>
	<path class="st0" d="M350.2,72.7c-3.1,0-5.7-2.6-5.7-5.7V17.4c0-3.1,2.6-5.7,5.7-5.7c3.1,0,5.7,2.6,5.7,5.7V67
		C355.9,70.1,353.3,72.7,350.2,72.7z"/>
</g>
<g>
	<path class="st1" d="M308,72.7c-3.1,0-5.7-2.6-5.7-5.7V17.4c0-3.1,2.6-5.7,5.7-5.7c3.1,0,5.7,2.6,5.7,5.7V67
		C313.7,70.1,311.2,72.7,308,72.7z"/>
</g>
<g>
	<path class="st2" d="M366.4,47.7c-3.1,0-5.5-2.5-5.5-5.5c0-16.8,13.7-30.5,30.6-30.5c3.1,0,5.5,2.5,5.5,5.5s-2.5,5.5-5.5,5.5
		c-10.8,0-19.5,8.7-19.5,19.4C371.9,45.2,369.4,47.7,366.4,47.7z"/>
</g>
<g>
	<path class="st1" d="M391.4,72.7c-16.9,0-30.6-13.7-30.6-30.5c0-3.1,2.5-5.5,5.5-5.5s5.5,2.5,5.5,5.5c0,10.7,8.8,19.4,19.5,19.4
		c3.1,0,5.5,2.5,5.5,5.5S394.5,72.7,391.4,72.7z"/>
</g>
<g>
	<path class="st5" d="M391.4,72.7c-3.1,0-5.5-2.5-5.5-5.5s2.5-5.5,5.5-5.5c5.2,0,10.4-2,13.9-5.3c2.2-2.1,5.7-2,7.8,0.2
		c2.1,2.2,2,5.7-0.2,7.8C407.4,69.6,399.3,72.7,391.4,72.7z"/>
</g>
<g>
	<path class="st0" d="M408.8,29.7c-1.4,0-2.8-0.5-3.8-1.5c-3.7-3.5-8.5-5.4-13.5-5.4c-3.1,0-5.5-2.5-5.5-5.5s2.5-5.5,5.5-5.5
		c8,0,15.5,3,21.2,8.5c2.2,2.1,2.3,5.6,0.2,7.8C411.7,29.1,410.2,29.7,408.8,29.7z"/>
</g>
<g>
	<path class="st0" d="M409.1,65.9c-3.1,0-5.5-2.5-5.5-5.5V42.7c0-3.1,2.5-5.5,5.5-5.5c3.1,0,5.5,2.5,5.5,5.5v17.7
		C414.6,63.4,412.1,65.9,409.1,65.9z"/>
</g>
<g>
	<path class="st3" d="M409.1,48.2h-19.7c-3.1,0-5.5-2.5-5.5-5.5s2.5-5.5,5.5-5.5h19.7c3.1,0,5.5,2.5,5.5,5.5S412.2,48.2,409.1,48.2z
		"/>
</g>
<g>
	<path class="st6" d="M24.2,155.2c0.9,0.4,1.6,1,2.1,1.7c0.5,0.8,0.7,1.7,0.7,2.7c0,1-0.2,1.9-0.7,2.7c-0.5,0.8-1.2,1.4-2.1,1.8
		c-0.9,0.4-2,0.6-3.2,0.6h-3.2v4.1h-2.6v-14.2H21C22.2,154.6,23.3,154.8,24.2,155.2z M23.5,161.7c0.6-0.5,0.9-1.2,0.9-2.1
		c0-0.9-0.3-1.6-0.9-2.1c-0.6-0.5-1.5-0.7-2.6-0.7h-3.1v5.7h3.1C22,162.5,22.9,162.2,23.5,161.7z"/>
	<path class="st6" d="M38.5,168.8l-2.9-4.2c-0.1,0-0.3,0-0.5,0h-3.2v4.1h-2.6v-14.2h5.9c1.2,0,2.3,0.2,3.2,0.6
		c0.9,0.4,1.6,1,2.1,1.7c0.5,0.8,0.7,1.7,0.7,2.7c0,1.1-0.3,2-0.8,2.8c-0.5,0.8-1.3,1.3-2.2,1.7l3.3,4.7H38.5z M37.6,157.5
		c-0.6-0.5-1.5-0.7-2.6-0.7h-3.1v5.7H35c1.2,0,2-0.2,2.6-0.7c0.6-0.5,0.9-1.2,0.9-2.1C38.5,158.7,38.2,158,37.6,157.5z"/>
	<path class="st6" d="M46.3,168.1c-1.2-0.6-2.1-1.5-2.7-2.6c-0.7-1.1-1-2.4-1-3.8s0.3-2.6,1-3.8c0.7-1.1,1.6-2,2.7-2.6
		c1.2-0.6,2.5-0.9,3.9-0.9s2.8,0.3,3.9,0.9c1.2,0.6,2.1,1.5,2.7,2.6c0.7,1.1,1,2.4,1,3.8s-0.3,2.6-1,3.8c-0.7,1.1-1.6,2-2.7,2.6
		c-1.2,0.6-2.5,0.9-3.9,0.9S47.5,168.7,46.3,168.1z M52.8,166c0.8-0.4,1.4-1,1.8-1.8c0.4-0.8,0.7-1.6,0.7-2.6s-0.2-1.8-0.7-2.6
		c-0.4-0.8-1-1.4-1.8-1.8c-0.8-0.4-1.6-0.6-2.6-0.6c-0.9,0-1.8,0.2-2.6,0.6c-0.8,0.4-1.4,1-1.8,1.8c-0.4,0.8-0.7,1.6-0.7,2.6
		s0.2,1.8,0.7,2.6c0.4,0.8,1,1.4,1.8,1.8c0.8,0.4,1.6,0.6,2.6,0.6C51.2,166.7,52.1,166.5,52.8,166z"/>
	<path class="st6" d="M62.9,156.8v4.3h6.9v2.2h-6.9v5.4h-2.6v-14.2h10.4v2.2H62.9z"/>
	<path class="st6" d="M83.4,166.6v2.2H72.7v-14.2h10.4v2.2h-7.7v3.7h6.9v2.2h-6.9v3.9H83.4z"/>
	<path class="st6" d="M87.1,168.5c-1-0.3-1.8-0.7-2.4-1.2l0.9-2.1c0.6,0.5,1.3,0.8,2.1,1.1c0.8,0.3,1.7,0.4,2.6,0.4
		c1.1,0,1.8-0.2,2.4-0.5c0.5-0.3,0.8-0.8,0.8-1.3c0-0.4-0.1-0.7-0.4-1c-0.3-0.3-0.7-0.5-1.1-0.6c-0.4-0.1-1.1-0.3-1.8-0.5
		c-1.1-0.3-2-0.5-2.6-0.8c-0.7-0.3-1.2-0.7-1.7-1.2c-0.5-0.5-0.7-1.3-0.7-2.2c0-0.8,0.2-1.5,0.6-2.1c0.4-0.6,1.1-1.2,1.9-1.5
		c0.9-0.4,1.9-0.6,3.2-0.6c0.9,0,1.7,0.1,2.6,0.3c0.8,0.2,1.6,0.5,2.2,0.9l-0.8,2.1c-0.6-0.4-1.3-0.6-2-0.8c-0.7-0.2-1.3-0.3-2-0.3
		c-1,0-1.8,0.2-2.3,0.5s-0.8,0.8-0.8,1.4c0,0.4,0.1,0.7,0.4,1c0.3,0.3,0.7,0.5,1.1,0.6c0.4,0.1,1.1,0.3,1.8,0.5
		c1.1,0.2,1.9,0.5,2.6,0.8c0.7,0.3,1.3,0.7,1.7,1.2c0.5,0.5,0.7,1.3,0.7,2.2c0,0.8-0.2,1.5-0.6,2.1c-0.4,0.6-1.1,1.1-1.9,1.5
		c-0.9,0.4-1.9,0.6-3.2,0.6C89.2,169,88.2,168.8,87.1,168.5z"/>
	<path class="st6" d="M99.4,168.5c-1-0.3-1.8-0.7-2.4-1.2l0.9-2.1c0.6,0.5,1.3,0.8,2.1,1.1c0.8,0.3,1.7,0.4,2.6,0.4
		c1.1,0,1.8-0.2,2.4-0.5s0.8-0.8,0.8-1.3c0-0.4-0.1-0.7-0.4-1c-0.3-0.3-0.7-0.5-1.1-0.6c-0.4-0.1-1.1-0.3-1.8-0.5
		c-1.1-0.3-2-0.5-2.6-0.8c-0.7-0.3-1.2-0.7-1.7-1.2c-0.5-0.5-0.7-1.3-0.7-2.2c0-0.8,0.2-1.5,0.6-2.1c0.4-0.6,1.1-1.2,1.9-1.5
		c0.9-0.4,1.9-0.6,3.2-0.6c0.9,0,1.7,0.1,2.6,0.3c0.8,0.2,1.6,0.5,2.2,0.9l-0.8,2.1c-0.6-0.4-1.3-0.6-2-0.8c-0.7-0.2-1.3-0.3-2-0.3
		c-1,0-1.8,0.2-2.3,0.5s-0.8,0.8-0.8,1.4c0,0.4,0.1,0.7,0.4,1c0.3,0.3,0.7,0.5,1.1,0.6c0.4,0.1,1.1,0.3,1.8,0.5
		c1.1,0.2,1.9,0.5,2.6,0.8c0.7,0.3,1.3,0.7,1.7,1.2c0.5,0.5,0.7,1.3,0.7,2.2c0,0.8-0.2,1.5-0.6,2.1c-0.4,0.6-1.1,1.1-1.9,1.5
		c-0.9,0.4-1.9,0.6-3.2,0.6C101.5,169,100.5,168.8,99.4,168.5z"/>
	<path class="st6" d="M110.5,154.6h2.6v14.2h-2.6V154.6z"/>
	<path class="st6" d="M119.3,168.1c-1.2-0.6-2.1-1.5-2.7-2.6c-0.7-1.1-1-2.4-1-3.8s0.3-2.6,1-3.8c0.7-1.1,1.6-2,2.7-2.6
		c1.2-0.6,2.5-0.9,3.9-0.9c1.5,0,2.8,0.3,3.9,0.9c1.2,0.6,2.1,1.5,2.7,2.6c0.7,1.1,1,2.4,1,3.8s-0.3,2.6-1,3.8
		c-0.7,1.1-1.6,2-2.7,2.6c-1.2,0.6-2.5,0.9-3.9,0.9C121.7,169,120.4,168.7,119.3,168.1z M125.8,166c0.8-0.4,1.4-1,1.8-1.8
		c0.4-0.8,0.7-1.6,0.7-2.6s-0.2-1.8-0.7-2.6c-0.4-0.8-1-1.4-1.8-1.8c-0.8-0.4-1.6-0.6-2.6-0.6c-0.9,0-1.8,0.2-2.6,0.6
		c-0.8,0.4-1.4,1-1.8,1.8c-0.4,0.8-0.7,1.6-0.7,2.6s0.2,1.8,0.7,2.6c0.4,0.8,1,1.4,1.8,1.8c0.8,0.4,1.6,0.6,2.6,0.6
		C124.1,166.7,125,166.5,125.8,166z"/>
	<path class="st6" d="M145.8,154.6v14.2h-2.2l-7.8-9.6v9.6h-2.6v-14.2h2.2l7.8,9.6v-9.6H145.8z"/>
	<path class="st6" d="M158.4,165.5h-7.1l-1.4,3.3h-2.7l6.4-14.2h2.6l6.4,14.2h-2.8L158.4,165.5z M157.6,163.4l-2.7-6.2l-2.7,6.2
		H157.6z"/>
	<path class="st6" d="M164,154.6h2.6v12h7.4v2.2H164V154.6z"/>
	<path class="st6" d="M180.8,154.6h6.2c1.5,0,2.9,0.3,4,0.9s2.1,1.4,2.7,2.5c0.7,1.1,1,2.3,1,3.7s-0.3,2.7-1,3.7
		c-0.7,1.1-1.6,1.9-2.7,2.5s-2.5,0.9-4,0.9h-6.2V154.6z M186.9,166.6c1,0,2-0.2,2.8-0.6c0.8-0.4,1.4-1,1.8-1.7
		c0.4-0.7,0.6-1.6,0.6-2.6s-0.2-1.8-0.6-2.6c-0.4-0.7-1-1.3-1.8-1.7c-0.8-0.4-1.7-0.6-2.8-0.6h-3.5v9.8H186.9z"/>
	<path class="st6" d="M207.8,166.6v2.2h-10.7v-14.2h10.4v2.2h-7.7v3.7h6.9v2.2h-6.9v3.9H207.8z"/>
	<path class="st6" d="M223.1,154.6l-6.2,14.2h-2.6l-6.2-14.2h2.9l4.7,11l4.8-11H223.1z"/>
	<path class="st6" d="M234.8,166.6v2.2h-10.7v-14.2h10.4v2.2h-7.7v3.7h6.9v2.2h-6.9v3.9H234.8z"/>
	<path class="st6" d="M237.3,154.6h2.6v12h7.4v2.2h-10.1V154.6z"/>
	<path class="st6" d="M251.4,168.1c-1.2-0.6-2.1-1.5-2.7-2.6c-0.7-1.1-1-2.4-1-3.8s0.3-2.6,1-3.8c0.7-1.1,1.6-2,2.7-2.6
		c1.2-0.6,2.5-0.9,3.9-0.9c1.4,0,2.8,0.3,3.9,0.9c1.2,0.6,2.1,1.5,2.7,2.6c0.7,1.1,1,2.4,1,3.8s-0.3,2.6-1,3.8
		c-0.7,1.1-1.6,2-2.7,2.6c-1.2,0.6-2.5,0.9-3.9,0.9C253.9,169,252.6,168.7,251.4,168.1z M257.9,166c0.8-0.4,1.4-1,1.8-1.8
		c0.4-0.8,0.7-1.6,0.7-2.6s-0.2-1.8-0.7-2.6c-0.4-0.8-1-1.4-1.8-1.8c-0.8-0.4-1.6-0.6-2.6-0.6c-0.9,0-1.8,0.2-2.6,0.6
		c-0.8,0.4-1.4,1-1.8,1.8c-0.4,0.8-0.6,1.6-0.6,2.6s0.2,1.8,0.6,2.6c0.4,0.8,1,1.4,1.8,1.8c0.8,0.4,1.6,0.6,2.6,0.6
		C256.3,166.7,257.2,166.5,257.9,166z"/>
	<path class="st6" d="M274.4,155.2c0.9,0.4,1.6,1,2.1,1.7c0.5,0.8,0.7,1.7,0.7,2.7c0,1-0.2,1.9-0.7,2.7c-0.5,0.8-1.2,1.4-2.1,1.8
		c-0.9,0.4-2,0.6-3.2,0.6H268v4.1h-2.6v-14.2h5.9C272.5,154.6,273.5,154.8,274.4,155.2z M273.7,161.7c0.6-0.5,0.9-1.2,0.9-2.1
		c0-0.9-0.3-1.6-0.9-2.1c-0.6-0.5-1.5-0.7-2.6-0.7H268v5.7h3.1C272.2,162.5,273.1,162.2,273.7,161.7z"/>
	<path class="st6" d="M292.5,168.8l0-9.4l-4.7,7.8h-1.2l-4.7-7.7v9.3h-2.5v-14.2h2.2l5.7,9.4l5.5-9.4h2.2l0,14.2H292.5z"/>
	<path class="st6" d="M309.1,166.6v2.2h-10.7v-14.2h10.4v2.2H301v3.7h6.9v2.2H301v3.9H309.1z"/>
	<path class="st6" d="M324.2,154.6v14.2H322l-7.8-9.6v9.6h-2.6v-14.2h2.2l7.8,9.6v-9.6H324.2z"/>
	<path class="st6" d="M330.4,156.8h-4.7v-2.2h12.1v2.2h-4.7v12h-2.6V156.8z"/>
	<path class="st6" d="M353.5,155.2c0.9,0.4,1.6,1,2.1,1.7c0.5,0.8,0.7,1.7,0.7,2.7c0,1-0.2,1.9-0.7,2.7c-0.5,0.8-1.2,1.4-2.1,1.8
		c-0.9,0.4-2,0.6-3.2,0.6h-3.2v4.1h-2.6v-14.2h5.9C351.5,154.6,352.6,154.8,353.5,155.2z M352.8,161.7c0.6-0.5,0.9-1.2,0.9-2.1
		c0-0.9-0.3-1.6-0.9-2.1c-0.6-0.5-1.5-0.7-2.6-0.7h-3.1v5.7h3.1C351.3,162.5,352.2,162.2,352.8,161.7z"/>
	<path class="st6" d="M361.5,168.1c-1.2-0.6-2.1-1.5-2.7-2.6c-0.7-1.1-1-2.4-1-3.8s0.3-2.6,1-3.8c0.7-1.1,1.6-2,2.7-2.6
		c1.2-0.6,2.5-0.9,3.9-0.9c1.5,0,2.8,0.3,3.9,0.9c1.2,0.6,2.1,1.5,2.7,2.6c0.7,1.1,1,2.4,1,3.8s-0.3,2.6-1,3.8
		c-0.7,1.1-1.6,2-2.7,2.6c-1.2,0.6-2.5,0.9-3.9,0.9C363.9,169,362.6,168.7,361.5,168.1z M368,166c0.8-0.4,1.4-1,1.8-1.8
		c0.4-0.8,0.7-1.6,0.7-2.6s-0.2-1.8-0.7-2.6c-0.4-0.8-1-1.4-1.8-1.8c-0.8-0.4-1.6-0.6-2.6-0.6s-1.8,0.2-2.6,0.6
		c-0.8,0.4-1.4,1-1.8,1.8c-0.4,0.8-0.7,1.6-0.7,2.6s0.2,1.8,0.7,2.6c0.4,0.8,1,1.4,1.8,1.8c0.8,0.4,1.6,0.6,2.6,0.6
		S367.2,166.5,368,166z"/>
	<path class="st6" d="M384.7,168.8l-2.9-4.2c-0.1,0-0.3,0-0.5,0H378v4.1h-2.6v-14.2h5.9c1.2,0,2.3,0.2,3.2,0.6
		c0.9,0.4,1.6,1,2.1,1.7c0.5,0.8,0.7,1.7,0.7,2.7c0,1.1-0.3,2-0.8,2.8c-0.5,0.8-1.3,1.3-2.2,1.7l3.3,4.7H384.7z M383.7,157.5
		c-0.6-0.5-1.5-0.7-2.6-0.7H378v5.7h3.1c1.2,0,2-0.2,2.6-0.7c0.6-0.5,0.9-1.2,0.9-2.1C384.6,158.7,384.3,158,383.7,157.5z"/>
	<path class="st6" d="M392.5,156.8h-4.7v-2.2h12.1v2.2h-4.7v12h-2.6V156.8z"/>
	<path class="st6" d="M409.9,165.5h-7.1l-1.4,3.3h-2.7l6.4-14.2h2.6l6.4,14.2h-2.8L409.9,165.5z M409,163.4l-2.7-6.2l-2.7,6.2H409z"
		/>
	<path class="st6" d="M415.4,154.6h2.6v12h7.4v2.2h-10.1V154.6z"/>
	<path class="st6" d="M17.8,177.3v4.3h6.9v2.2h-6.9v5.4h-2.6v-14.2h10.4v2.2H17.8z"/>
	<path class="st6" d="M30.2,188.5c-1.2-0.6-2.1-1.5-2.7-2.6c-0.7-1.1-1-2.4-1-3.8c0-1.4,0.3-2.6,1-3.8c0.7-1.1,1.6-2,2.7-2.6
		c1.2-0.6,2.5-0.9,3.9-0.9s2.8,0.3,3.9,0.9c1.2,0.6,2.1,1.5,2.7,2.6c0.7,1.1,1,2.4,1,3.8c0,1.4-0.3,2.6-1,3.8
		c-0.7,1.1-1.6,2-2.7,2.6c-1.2,0.6-2.5,0.9-3.9,0.9S31.3,189.2,30.2,188.5z M36.7,186.5c0.8-0.4,1.4-1,1.8-1.8
		c0.4-0.8,0.7-1.6,0.7-2.6s-0.2-1.8-0.7-2.6c-0.4-0.8-1-1.4-1.8-1.8s-1.6-0.6-2.6-0.6c-0.9,0-1.8,0.2-2.6,0.6
		c-0.8,0.4-1.4,1-1.8,1.8c-0.4,0.8-0.7,1.6-0.7,2.6s0.2,1.8,0.7,2.6c0.4,0.8,1,1.4,1.8,1.8c0.8,0.4,1.6,0.6,2.6,0.6
		C35.1,187.2,35.9,187,36.7,186.5z"/>
	<path class="st6" d="M53.4,189.3l-2.9-4.2c-0.1,0-0.3,0-0.5,0h-3.2v4.1h-2.6v-14.2H50c1.2,0,2.3,0.2,3.2,0.6c0.9,0.4,1.6,1,2.1,1.7
		c0.5,0.8,0.7,1.7,0.7,2.7c0,1.1-0.3,2-0.8,2.8c-0.5,0.8-1.3,1.3-2.2,1.7l3.3,4.7H53.4z M52.5,178c-0.6-0.5-1.5-0.7-2.6-0.7h-3.1
		v5.7h3.1c1.2,0,2-0.2,2.6-0.7c0.6-0.5,0.9-1.2,0.9-2.1C53.4,179.2,53.1,178.5,52.5,178z"/>
	<path class="st6" d="M75.6,183.2c0.5,0.6,0.7,1.4,0.7,2.2c0,1.2-0.5,2.2-1.4,2.9c-0.9,0.7-2.3,1-4.1,1h-7.1v-14.2h6.7
		c1.7,0,3,0.3,3.9,1c0.9,0.7,1.4,1.6,1.4,2.7c0,0.7-0.2,1.3-0.5,1.9c-0.3,0.5-0.8,1-1.3,1.3C74.5,182.1,75.1,182.6,75.6,183.2z
		 M66.3,177.1v3.9H70c0.9,0,1.6-0.2,2.1-0.5c0.5-0.3,0.7-0.8,0.7-1.5c0-0.7-0.2-1.1-0.7-1.5c-0.5-0.3-1.2-0.5-2.1-0.5H66.3z
		 M73.6,185.2c0-1.4-1-2.1-3.1-2.1h-4.3v4.1h4.3C72.6,187.2,73.6,186.5,73.6,185.2z"/>
	<path class="st6" d="M81.3,188.5c-1.2-0.6-2.1-1.5-2.7-2.6c-0.7-1.1-1-2.4-1-3.8c0-1.4,0.3-2.6,1-3.8c0.7-1.1,1.6-2,2.7-2.6
		c1.2-0.6,2.5-0.9,3.9-0.9c1.2,0,2.2,0.2,3.2,0.6c1,0.4,1.8,1,2.4,1.8l-1.7,1.6c-1-1.1-2.3-1.7-3.8-1.7c-1,0-1.8,0.2-2.6,0.6
		c-0.8,0.4-1.4,1-1.8,1.8c-0.4,0.8-0.7,1.6-0.7,2.6c0,1,0.2,1.8,0.7,2.6c0.4,0.8,1,1.4,1.8,1.8c0.8,0.4,1.6,0.6,2.6,0.6
		c1.5,0,2.8-0.6,3.8-1.7l1.7,1.6c-0.7,0.8-1.5,1.4-2.4,1.8c-1,0.4-2,0.6-3.2,0.6C83.8,189.5,82.5,189.2,81.3,188.5z"/>
	<path class="st6" d="M107.2,175.7c0.9,0.4,1.6,1,2.1,1.7c0.5,0.8,0.7,1.7,0.7,2.7c0,1-0.2,1.9-0.7,2.7c-0.5,0.8-1.2,1.4-2.1,1.8
		c-0.9,0.4-2,0.6-3.2,0.6h-3.2v4.1h-2.6v-14.2h5.9C105.2,175.1,106.3,175.3,107.2,175.7z M106.4,182.2c0.6-0.5,0.9-1.2,0.9-2.1
		c0-0.9-0.3-1.6-0.9-2.1c-0.6-0.5-1.5-0.7-2.6-0.7h-3.1v5.7h3.1C105,182.9,105.9,182.7,106.4,182.2z"/>
	<path class="st6" d="M115.1,188.5c-1.2-0.6-2.1-1.5-2.7-2.6c-0.7-1.1-1-2.4-1-3.8c0-1.4,0.3-2.6,1-3.8c0.7-1.1,1.6-2,2.7-2.6
		c1.2-0.6,2.5-0.9,3.9-0.9c1.5,0,2.8,0.3,3.9,0.9c1.2,0.6,2.1,1.5,2.7,2.6c0.7,1.1,1,2.4,1,3.8c0,1.4-0.3,2.6-1,3.8
		c-0.7,1.1-1.6,2-2.7,2.6c-1.2,0.6-2.5,0.9-3.9,0.9C117.6,189.5,116.3,189.2,115.1,188.5z M121.6,186.5c0.8-0.4,1.4-1,1.8-1.8
		c0.4-0.8,0.7-1.6,0.7-2.6s-0.2-1.8-0.7-2.6c-0.4-0.8-1-1.4-1.8-1.8c-0.8-0.4-1.6-0.6-2.6-0.6c-0.9,0-1.8,0.2-2.6,0.6
		c-0.8,0.4-1.4,1-1.8,1.8c-0.4,0.8-0.7,1.6-0.7,2.6s0.2,1.8,0.7,2.6c0.4,0.8,1,1.4,1.8,1.8c0.8,0.4,1.6,0.6,2.6,0.6
		C120,187.2,120.8,187,121.6,186.5z"/>
	<path class="st6" d="M130.3,189c-1-0.3-1.8-0.7-2.4-1.2l0.9-2.1c0.6,0.5,1.3,0.8,2.1,1.1c0.8,0.3,1.7,0.4,2.6,0.4
		c1.1,0,1.8-0.2,2.4-0.5c0.5-0.3,0.8-0.8,0.8-1.3c0-0.4-0.1-0.7-0.4-1c-0.3-0.3-0.7-0.5-1.1-0.6c-0.4-0.1-1.1-0.3-1.8-0.5
		c-1.1-0.3-2-0.5-2.6-0.8c-0.7-0.3-1.2-0.7-1.7-1.2c-0.5-0.5-0.7-1.3-0.7-2.2c0-0.8,0.2-1.5,0.6-2.1c0.4-0.6,1.1-1.2,1.9-1.5
		c0.9-0.4,1.9-0.6,3.2-0.6c0.9,0,1.7,0.1,2.6,0.3c0.8,0.2,1.6,0.5,2.2,0.9l-0.8,2.1c-0.6-0.4-1.3-0.6-2-0.8c-0.7-0.2-1.3-0.3-2-0.3
		c-1,0-1.8,0.2-2.3,0.5c-0.5,0.4-0.8,0.8-0.8,1.4c0,0.4,0.1,0.7,0.4,1c0.3,0.3,0.7,0.5,1.1,0.6c0.4,0.1,1.1,0.3,1.8,0.5
		c1.1,0.2,1.9,0.5,2.6,0.8c0.7,0.3,1.3,0.7,1.7,1.2c0.5,0.5,0.7,1.3,0.7,2.2c0,0.8-0.2,1.5-0.6,2.1c-0.4,0.6-1.1,1.1-1.9,1.5
		c-0.9,0.4-1.9,0.6-3.2,0.6C132.3,189.5,131.3,189.3,130.3,189z"/>
	<path class="st6" d="M144,177.3h-4.7v-2.2h12.1v2.2h-4.7v12H144V177.3z"/>
	<path class="st6" d="M151.4,182.6h5.6v2.1h-5.6V182.6z"/>
	<path class="st6" d="M160.5,189c-1-0.3-1.8-0.7-2.4-1.2l0.9-2.1c0.6,0.5,1.3,0.8,2.1,1.1c0.8,0.3,1.7,0.4,2.6,0.4
		c1.1,0,1.8-0.2,2.4-0.5c0.5-0.3,0.8-0.8,0.8-1.3c0-0.4-0.1-0.7-0.4-1c-0.3-0.3-0.7-0.5-1.1-0.6c-0.4-0.1-1.1-0.3-1.8-0.5
		c-1.1-0.3-2-0.5-2.6-0.8c-0.7-0.3-1.2-0.7-1.7-1.2c-0.5-0.5-0.7-1.3-0.7-2.2c0-0.8,0.2-1.5,0.6-2.1c0.4-0.6,1.1-1.2,1.9-1.5
		c0.9-0.4,1.9-0.6,3.2-0.6c0.9,0,1.7,0.1,2.6,0.3c0.8,0.2,1.6,0.5,2.2,0.9l-0.8,2.1c-0.6-0.4-1.3-0.6-2-0.8c-0.7-0.2-1.3-0.3-2-0.3
		c-1,0-1.8,0.2-2.3,0.5c-0.5,0.4-0.8,0.8-0.8,1.4c0,0.4,0.1,0.7,0.4,1c0.3,0.3,0.7,0.5,1.1,0.6c0.4,0.1,1.1,0.3,1.8,0.5
		c1.1,0.2,1.9,0.5,2.6,0.8c0.7,0.3,1.3,0.7,1.7,1.2c0.5,0.5,0.7,1.3,0.7,2.2c0,0.8-0.2,1.5-0.6,2.1c-0.4,0.6-1.1,1.1-1.9,1.5
		c-0.9,0.4-1.9,0.6-3.2,0.6C162.6,189.5,161.5,189.3,160.5,189z"/>
	<path class="st6" d="M182.2,187.1v2.2h-10.7v-14.2H182v2.2h-7.7v3.7h6.9v2.2h-6.9v3.9H182.2z"/>
	<path class="st6" d="M187.4,188.5c-1.2-0.6-2.1-1.5-2.7-2.6c-0.7-1.1-1-2.4-1-3.8c0-1.4,0.3-2.6,1-3.8c0.7-1.1,1.6-2,2.7-2.6
		c1.2-0.6,2.5-0.9,3.9-0.9c1.2,0,2.2,0.2,3.2,0.6c1,0.4,1.8,1,2.4,1.8l-1.7,1.6c-1-1.1-2.3-1.7-3.8-1.7c-1,0-1.8,0.2-2.6,0.6
		c-0.8,0.4-1.4,1-1.8,1.8c-0.4,0.8-0.7,1.6-0.7,2.6c0,1,0.2,1.8,0.7,2.6c0.4,0.8,1,1.4,1.8,1.8c0.8,0.4,1.6,0.6,2.6,0.6
		c1.5,0,2.8-0.6,3.8-1.7l1.7,1.6c-0.7,0.8-1.5,1.4-2.4,1.8c-1,0.4-2,0.6-3.2,0.6C189.8,189.5,188.5,189.2,187.4,188.5z"/>
	<path class="st6" d="M201.4,188.5c-1.2-0.6-2.1-1.5-2.7-2.6c-0.7-1.1-1-2.4-1-3.8c0-1.4,0.3-2.6,1-3.8c0.7-1.1,1.6-2,2.7-2.6
		c1.2-0.6,2.5-0.9,3.9-0.9c1.5,0,2.8,0.3,3.9,0.9c1.2,0.6,2.1,1.5,2.7,2.6c0.7,1.1,1,2.4,1,3.8c0,1.4-0.3,2.6-1,3.8
		c-0.7,1.1-1.6,2-2.7,2.6c-1.2,0.6-2.5,0.9-3.9,0.9C203.9,189.5,202.6,189.2,201.4,188.5z M207.9,186.5c0.8-0.4,1.4-1,1.8-1.8
		c0.4-0.8,0.7-1.6,0.7-2.6s-0.2-1.8-0.7-2.6c-0.4-0.8-1-1.4-1.8-1.8s-1.6-0.6-2.6-0.6c-0.9,0-1.8,0.2-2.6,0.6s-1.4,1-1.8,1.8
		c-0.4,0.8-0.7,1.6-0.7,2.6s0.2,1.8,0.7,2.6c0.4,0.8,1,1.4,1.8,1.8s1.6,0.6,2.6,0.6C206.3,187.2,207.1,187,207.9,186.5z"/>
	<path class="st6" d="M228,175.1v14.2h-2.2l-7.8-9.6v9.6h-2.6v-14.2h2.2l7.8,9.6v-9.6H228z"/>
	<path class="st6" d="M231.3,175.1h6.2c1.5,0,2.9,0.3,4,0.9c1.2,0.6,2.1,1.4,2.7,2.5c0.6,1.1,1,2.3,1,3.7c0,1.4-0.3,2.7-1,3.7
		c-0.7,1.1-1.6,1.9-2.7,2.5c-1.2,0.6-2.5,0.9-4,0.9h-6.2V175.1z M237.4,187.1c1,0,2-0.2,2.8-0.6c0.8-0.4,1.4-1,1.8-1.7
		c0.4-0.7,0.6-1.6,0.6-2.6c0-1-0.2-1.8-0.6-2.6c-0.4-0.7-1-1.3-1.8-1.7c-0.8-0.4-1.7-0.6-2.8-0.6H234v9.8H237.4z"/>
	<path class="st6" d="M256.7,186h-7.1l-1.4,3.3h-2.7l6.4-14.2h2.6l6.4,14.2h-2.8L256.7,186z M255.8,183.9l-2.7-6.2l-2.7,6.2H255.8z"
		/>
	<path class="st6" d="M271.5,189.3l-2.9-4.2c-0.1,0-0.3,0-0.5,0h-3.2v4.1h-2.6v-14.2h5.9c1.2,0,2.3,0.2,3.2,0.6
		c0.9,0.4,1.6,1,2.1,1.7c0.5,0.8,0.7,1.7,0.7,2.7c0,1.1-0.3,2-0.8,2.8c-0.5,0.8-1.3,1.3-2.2,1.7l3.3,4.7H271.5z M270.5,178
		c-0.6-0.5-1.5-0.7-2.6-0.7h-3.1v5.7h3.1c1.2,0,2-0.2,2.6-0.7c0.6-0.5,0.9-1.2,0.9-2.1C271.4,179.2,271.1,178.5,270.5,178z"/>
	<path class="st6" d="M282.5,184.3v5h-2.6v-5l-5.6-9.2h2.8l4.2,6.9l4.2-6.9h2.6L282.5,184.3z"/>
	<path class="st6" d="M305.2,187.1v2.2h-10.7v-14.2h10.4v2.2h-7.7v3.7h6.9v2.2h-6.9v3.9H305.2z"/>
	<path class="st6" d="M307.6,175.1h6.2c1.5,0,2.9,0.3,4,0.9c1.2,0.6,2.1,1.4,2.7,2.5c0.7,1.1,1,2.3,1,3.7c0,1.4-0.3,2.7-1,3.7
		c-0.7,1.1-1.6,1.9-2.7,2.5c-1.2,0.6-2.5,0.9-4,0.9h-6.2V175.1z M313.7,187.1c1,0,2-0.2,2.8-0.6c0.8-0.4,1.4-1,1.8-1.7
		c0.4-0.7,0.6-1.6,0.6-2.6c0-1-0.2-1.8-0.6-2.6c-0.4-0.7-1-1.3-1.8-1.7s-1.7-0.6-2.8-0.6h-3.5v9.8H313.7z"/>
	<path class="st6" d="M325.5,187.8c-1.1-1.1-1.6-2.7-1.6-4.7v-8h2.6v7.9c0,2.8,1.2,4.2,3.6,4.2c2.4,0,3.6-1.4,3.6-4.2v-7.9h2.6v8
		c0,2.1-0.5,3.6-1.6,4.7c-1.1,1.1-2.6,1.7-4.6,1.7C328.1,189.5,326.6,188.9,325.5,187.8z"/>
	<path class="st6" d="M342.2,188.5c-1.2-0.6-2.1-1.5-2.7-2.6c-0.7-1.1-1-2.4-1-3.8c0-1.4,0.3-2.6,1-3.8c0.7-1.1,1.6-2,2.7-2.6
		c1.2-0.6,2.5-0.9,3.9-0.9c1.2,0,2.2,0.2,3.2,0.6c1,0.4,1.8,1,2.4,1.8l-1.7,1.6c-1-1.1-2.3-1.7-3.8-1.7c-1,0-1.9,0.2-2.6,0.6
		c-0.8,0.4-1.4,1-1.8,1.8c-0.4,0.8-0.7,1.6-0.7,2.6c0,1,0.2,1.8,0.7,2.6c0.4,0.8,1,1.4,1.8,1.8c0.8,0.4,1.6,0.6,2.6,0.6
		c1.5,0,2.8-0.6,3.8-1.7l1.7,1.6c-0.7,0.8-1.5,1.4-2.4,1.8c-1,0.4-2,0.6-3.2,0.6C344.7,189.5,343.4,189.2,342.2,188.5z"/>
	<path class="st6" d="M362.8,186h-7.1l-1.4,3.3h-2.7l6.4-14.2h2.6l6.4,14.2h-2.8L362.8,186z M361.9,183.9l-2.7-6.2l-2.7,6.2H361.9z"
		/>
	<path class="st6" d="M370.5,177.3h-4.7v-2.2h12.1v2.2h-4.7v12h-2.6V177.3z"/>
	<path class="st6" d="M381.9,188.5c-1.2-0.6-2.1-1.5-2.7-2.6c-0.7-1.1-1-2.4-1-3.8c0-1.4,0.3-2.6,1-3.8c0.7-1.1,1.6-2,2.7-2.6
		c1.2-0.6,2.5-0.9,3.9-0.9c1.5,0,2.8,0.3,3.9,0.9c1.2,0.6,2.1,1.5,2.7,2.6c0.7,1.1,1,2.4,1,3.8c0,1.4-0.3,2.6-1,3.8
		c-0.7,1.1-1.6,2-2.7,2.6c-1.2,0.6-2.5,0.9-3.9,0.9C384.3,189.5,383,189.2,381.9,188.5z M388.4,186.5c0.8-0.4,1.4-1,1.8-1.8
		c0.4-0.8,0.7-1.6,0.7-2.6s-0.2-1.8-0.7-2.6c-0.4-0.8-1-1.4-1.8-1.8c-0.8-0.4-1.6-0.6-2.6-0.6c-0.9,0-1.8,0.2-2.6,0.6
		c-0.8,0.4-1.4,1-1.8,1.8c-0.4,0.8-0.7,1.6-0.7,2.6s0.2,1.8,0.7,2.6c0.4,0.8,1,1.4,1.8,1.8c0.8,0.4,1.6,0.6,2.6,0.6
		C386.7,187.2,387.6,187,388.4,186.5z"/>
	<path class="st6" d="M405.1,189.3l-2.9-4.2c-0.1,0-0.3,0-0.5,0h-3.2v4.1h-2.6v-14.2h5.9c1.2,0,2.3,0.2,3.2,0.6
		c0.9,0.4,1.6,1,2.1,1.7c0.5,0.8,0.7,1.7,0.7,2.7c0,1.1-0.3,2-0.8,2.8c-0.5,0.8-1.3,1.3-2.2,1.7l3.3,4.7H405.1z M404.2,178
		c-0.6-0.5-1.5-0.7-2.6-0.7h-3.1v5.7h3.1c1.2,0,2-0.2,2.6-0.7c0.6-0.5,0.9-1.2,0.9-2.1C405,179.2,404.7,178.5,404.2,178z"/>
	<path class="st6" d="M411.4,189c-1-0.3-1.8-0.7-2.4-1.2l0.9-2.1c0.6,0.5,1.3,0.8,2.1,1.1c0.8,0.3,1.7,0.4,2.6,0.4
		c1.1,0,1.8-0.2,2.4-0.5c0.5-0.3,0.8-0.8,0.8-1.3c0-0.4-0.1-0.7-0.4-1c-0.3-0.3-0.7-0.5-1.1-0.6c-0.4-0.1-1.1-0.3-1.8-0.5
		c-1.1-0.3-2-0.5-2.6-0.8c-0.7-0.3-1.2-0.7-1.7-1.2c-0.5-0.5-0.7-1.3-0.7-2.2c0-0.8,0.2-1.5,0.6-2.1c0.4-0.6,1.1-1.2,1.9-1.5
		c0.9-0.4,1.9-0.6,3.2-0.6c0.9,0,1.7,0.1,2.6,0.3c0.8,0.2,1.6,0.5,2.2,0.9l-0.8,2.1c-0.6-0.4-1.3-0.6-2-0.8c-0.7-0.2-1.3-0.3-2-0.3
		c-1,0-1.8,0.2-2.3,0.5c-0.5,0.4-0.8,0.8-0.8,1.4c0,0.4,0.1,0.7,0.4,1c0.3,0.3,0.7,0.5,1.1,0.6c0.4,0.1,1.1,0.3,1.8,0.5
		c1.1,0.2,1.9,0.5,2.6,0.8c0.7,0.3,1.3,0.7,1.7,1.2s0.7,1.3,0.7,2.2c0,0.8-0.2,1.5-0.6,2.1c-0.4,0.6-1.1,1.1-1.9,1.5
		c-0.9,0.4-1.9,0.6-3.2,0.6C413.5,189.5,412.4,189.3,411.4,189z"/>
</g>
<g>
	<g>
		<path class="st7" d="M426.4,99.1c-2.1,0-3.8-1.7-3.8-3.8V62.6c0-2.1,1.7-3.8,3.8-3.8c2.1,0,3.8,1.7,3.8,3.8v32.7
			C430.1,97.4,428.4,99.1,426.4,99.1z"/>
	</g>
</g>
<g>
	<g>
		<path class="st5" d="M406.2,78.9c0-2.1,1.7-3.8,3.8-3.8h32.7c2.1,0,3.8,1.7,3.8,3.8c0,2.1-1.7,3.8-3.8,3.8H410
			C407.9,82.7,406.2,81,406.2,78.9z"/>
	</g>
</g>
</svg>
