<svg xmlns="http://www.w3.org/2000/svg" viewBox="0 0 443.34538 178.98285"><title>TLPD Logo_Final_1810_xo</title><g style="isolation:isolate"><g id="be7add71-ec0f-4441-995f-0351d7fff738" data-name="Layer 1"><g style="mix-blend-mode:multiply"><path d="M19,137.28545V89.76323a5.5983,5.5983,0,0,1,4.327-5.54257A5.50649,5.50649,0,0,1,30,89.59934v47.85a5.50649,5.50649,0,0,1-6.673,5.37868A5.59829,5.59829,0,0,1,19,137.28545Z" transform="translate(-4.426 -10.50857)" fill="#519032"/></g><path d="M24,65.33993V18.09916a5.69185,5.69185,0,0,1,5.00787-5.7626A5.4993,5.4993,0,0,1,35,17.81128V65.6278a5.4993,5.4993,0,0,1-5.99213,5.47473A5.69186,5.69186,0,0,1,24,65.33993Z" transform="translate(-4.426 -10.50857)" fill="#519032"/><g style="mix-blend-mode:multiply"><path d="M52.44578,143H24.39671a5.68669,5.68669,0,0,1-5.7537-4.9988A5.50087,5.50087,0,0,1,24.12078,132H52.16985a5.68669,5.68669,0,0,1,5.7537,4.9988A5.50088,5.50088,0,0,1,52.44578,143Z" transform="translate(-4.426 -10.50857)" fill="#8e53a1"/></g><path d="M67.5,142.53421a5.51282,5.51282,0,0,1-5.5-5.5257V88.93492a5.50006,5.50006,0,1,1,11,0v48.07359A5.51282,5.51282,0,0,1,67.5,142.53421Z" transform="translate(-4.426 -10.50857)" fill="#1c6fa7"/><g style="mix-blend-mode:multiply"><path d="M99.2659,94H67.51428a5.50006,5.50006,0,0,1,0-11H99.2659a5.50006,5.50006,0,0,1,0,11Z" transform="translate(-4.426 -10.50857)" fill="#8e53a1"/></g><g style="mix-blend-mode:multiply"><path d="M99.2659,143H67.51428a5.50006,5.50006,0,0,1,0-11H99.2659a5.50006,5.50006,0,0,1,0,11Z" transform="translate(-4.426 -10.50857)" fill="#519032"/></g><g style="mix-blend-mode:multiply"><path d="M94.52847,118H67.4301a5.50006,5.50006,0,0,1,0-11H94.52847a5.50006,5.50006,0,0,1,0,11Z" transform="translate(-4.426 -10.50857)" fill="#818181"/></g><path d="M113.94562,143.46135a5.70064,5.70064,0,0,1-5.07652-8.28047L134.05254,85.6015a5.69884,5.69884,0,1,1,10.16217,5.16115L119.0313,140.342A5.69872,5.69872,0,0,1,113.94562,143.46135Z" transform="translate(-4.426 -10.50857)" fill="#1c6fa7"/><g style="mix-blend-mode:multiply"><path d="M164.32163,143.46135A5.69854,5.69854,0,0,1,159.236,140.342L134.05254,90.76265a5.69884,5.69884,0,1,1,10.16217-5.16115l25.18345,49.57938a5.70064,5.70064,0,0,1-5.07653,8.28047Z" transform="translate(-4.426 -10.50857)" fill="#519032"/></g><g style="mix-blend-mode:multiply"><path d="M158.0512,132h-37.543a5.693,5.693,0,0,1-5.76377-5.00787A5.50091,5.50091,0,0,1,120.22315,121h37.543a5.693,5.693,0,0,1,5.76378,5.00787A5.50093,5.50093,0,0,1,158.0512,132Z" transform="translate(-4.426 -10.50857)" fill="#8e53a1"/></g><g style="mix-blend-mode:multiply"><g style="mix-blend-mode:multiply"><path d="M171,136.61209V89.331a5.69212,5.69212,0,0,1,5.00863-5.763A5.50067,5.50067,0,0,1,182,89.04667v47.84978a5.50066,5.50066,0,0,1-5.99137,5.4786A5.69212,5.69212,0,0,1,171,136.61209Z" transform="translate(-4.426 -10.50857)" fill="#8e53a1"/></g></g><g style="mix-blend-mode:multiply"><path d="M198.2907,122H176.9196a5.693,5.693,0,0,1-5.76384-5.00787A5.501,5.501,0,0,1,176.63434,111h21.3713a5.69287,5.69287,0,0,1,5.76365,5.00787A5.5007,5.5007,0,0,1,198.2907,122Z" transform="translate(-4.426 -10.50857)" fill="#818181"/></g><g style="mix-blend-mode:multiply"><path d="M199.69057,94h-22.7461a5.69305,5.69305,0,0,1-5.76384-5.00787A5.501,5.501,0,0,1,176.65922,83h22.7463a5.69285,5.69285,0,0,1,5.76364,5.00787A5.5007,5.5007,0,0,1,199.69057,94Z" transform="translate(-4.426 -10.50857)" fill="#1c6fa7"/></g><g style="mix-blend-mode:multiply"><path d="M213.46339,142.99574a5.68809,5.68809,0,0,1-4.51272-2.21391L193.03187,120.189a5.69886,5.69886,0,1,1,9.01765-6.97066l15.91882,20.59283a5.69935,5.69935,0,0,1-4.505,9.18458Z" transform="translate(-4.426 -10.50857)" fill="#1c6fa7"/></g><g style="mix-blend-mode:multiply"><path d="M206.1,122.02285H195.83582a1.62967,1.62967,0,0,1-1.14673-.4523c-4.8261-4.77217-1.52234-10.54771,3.1294-10.54771h4.34474a2.4898,2.4898,0,0,0,1.72178-.66052c8.19957-7.81206,1.72269-17.67-6.25546-16.22987a1.66738,1.66738,0,0,1-1.42519-.47244c-5.02926-4.78542-1.707-10.68289,2.98914-10.68289,16.50546,0,28.28315,20.70663,10.917,37.44988A5.77764,5.77764,0,0,1,206.1,122.02285Z" transform="translate(-4.426 -10.50857)" fill="#519032"/></g><path d="M270.39688,143.46135a5.68581,5.68581,0,0,1-4.34882-2.01245L223.99067,91.86778a5.699,5.699,0,1,1,8.69209-7.37306l42.05738,49.58112a5.699,5.699,0,0,1-4.34326,9.38551Z" transform="translate(-4.426 -10.50857)" fill="#1c6fa7"/><g style="mix-blend-mode:multiply"><path d="M265,137.57441V89.45529a5.76036,5.76036,0,0,1,5.00787-5.86513A5.54019,5.54019,0,0,1,276,89.16582v48.69806a5.5402,5.5402,0,0,1-5.99213,5.57566A5.76036,5.76036,0,0,1,265,137.57441Z" transform="translate(-4.426 -10.50857)" fill="#519032"/></g><g style="mix-blend-mode:multiply"><path d="M223,137.50235V88.79421a5.8091,5.8091,0,0,1,5.00787-5.93692A5.56857,5.56857,0,0,1,234,88.50119v49.29418a5.56857,5.56857,0,0,1-5.99213,5.6439A5.8091,5.8091,0,0,1,223,137.50235Z" transform="translate(-4.426 -10.50857)" fill="#8e53a1"/></g><g style="mix-blend-mode:multiply"><g style="mix-blend-mode:multiply"><path d="M284,136.6123V89.33113a5.6922,5.6922,0,0,1,5.00787-5.763A5.50083,5.50083,0,0,1,295,89.04671v47.85a5.50083,5.50083,0,0,1-5.99213,5.47856A5.6922,5.6922,0,0,1,284,136.6123Z" transform="translate(-4.426 -10.50857)" fill="#1c6fa7"/></g></g><g style="mix-blend-mode:multiply"><path d="M366.37192,118.4968a5.53421,5.53421,0,0,1-5.54357-5.52495,30.576,30.576,0,0,1,30.5925-30.48978,5.525,5.525,0,1,1,0,11.04991,19.49477,19.49477,0,0,0-19.50536,19.43987A5.53422,5.53422,0,0,1,366.37192,118.4968Z" transform="translate(-4.426 -10.50857)" fill="#1c6fa7"/></g><g style="mix-blend-mode:multiply"><path d="M391.42085,143.46135a30.57577,30.57577,0,0,1-30.5925-30.4895,5.5436,5.5436,0,0,1,11.08714,0,19.49469,19.49469,0,0,0,19.50536,19.43959,5.525,5.525,0,1,1,0,11.04991Z" transform="translate(-4.426 -10.50857)" fill="#8e53a1"/></g><g style="mix-blend-mode:multiply"><path d="M391.42085,143.46135a5.525,5.525,0,1,1,0-11.04991,20.74893,20.74893,0,0,0,13.89682-5.25976,5.53358,5.53358,0,1,1,7.58668,8.05757A32.11582,32.11582,0,0,1,391.42085,143.46135Z" transform="translate(-4.426 -10.50857)" fill="#1c6fa7"/></g><g style="mix-blend-mode:multiply"><path d="M408.78728,100.50644a5.53517,5.53517,0,0,1-3.84342-1.54392,19.445,19.445,0,0,0-13.523-5.43054,5.525,5.525,0,1,1,0-11.04991,30.50038,30.50038,0,0,1,21.21092,8.51835,5.52475,5.52475,0,0,1-3.84449,9.506Z" transform="translate(-4.426 -10.50857)" fill="#519032"/></g><g style="mix-blend-mode:multiply"><path d="M409.5,136.59239a5.49072,5.49072,0,0,1-5.5-5.48153V113.53515a5.5,5.5,0,0,1,11,0v17.57571A5.49072,5.49072,0,0,1,409.5,136.59239Z" transform="translate(-4.426 -10.50857)" fill="#519032"/></g><g style="mix-blend-mode:multiply"><path d="M409.067,119H389.4142a5.50034,5.50034,0,1,1,0-11.00061H409.067a5.50034,5.50034,0,1,1,0,11.00061Z" transform="translate(-4.426 -10.50857)" fill="#818181"/></g><g style="mix-blend-mode:multiply"><path d="M50.108,23H10.21175a5.69349,5.69349,0,0,1-5.76431-5.00787A5.50237,5.50237,0,0,1,9.92984,12H49.82605a5.69348,5.69348,0,0,1,5.7643,5.00787A5.50237,5.50237,0,0,1,50.108,23Z" transform="translate(-4.426 -10.50857)" fill="#8e53a1"/></g><path d="M67.5,71.7334A5.51283,5.51283,0,0,1,62,66.2077V18.1341a5.50006,5.50006,0,1,1,11,0V66.2077A5.51283,5.51283,0,0,1,67.5,71.7334Z" transform="translate(-4.426 -10.50857)" fill="#1c6fa7"/><g style="mix-blend-mode:multiply"><path d="M99.26545,23H67.51382a5.50006,5.50006,0,0,1,0-11H99.26545a5.50006,5.50006,0,0,1,0,11Z" transform="translate(-4.426 -10.50857)" fill="#8e53a1"/></g><g style="mix-blend-mode:multiply"><path d="M99.26545,72H67.51382a5.50006,5.50006,0,0,1,0-11H99.26545a5.50006,5.50006,0,0,1,0,11Z" transform="translate(-4.426 -10.50857)" fill="#519032"/></g><g style="mix-blend-mode:multiply"><path d="M94.528,48H67.42964a5.50006,5.50006,0,0,1,0-11H94.528a5.50006,5.50006,0,0,1,0,11Z" transform="translate(-4.426 -10.50857)" fill="#818181"/></g><g style="mix-blend-mode:multiply"><path d="M171.90117,46.52331a5.5215,5.5215,0,0,1-5.51849-5.525,30.50644,30.50644,0,0,1,30.45408-30.48978,5.525,5.525,0,0,1,0,11.04992,19.45051,19.45051,0,0,0-19.4171,19.43986A5.52183,5.52183,0,0,1,171.90117,46.52331Z" transform="translate(-4.426 -10.50857)" fill="#1c6fa7"/></g><g style="mix-blend-mode:multiply"><path d="M196.83676,71.48786a30.5062,30.5062,0,0,1-30.45408-30.48951,5.51849,5.51849,0,1,1,11.037,0,19.45044,19.45044,0,0,0,19.4171,19.43959,5.525,5.525,0,0,1,0,11.04992Z" transform="translate(-4.426 -10.50857)" fill="#8e53a1"/></g><g style="mix-blend-mode:multiply"><path d="M196.83676,71.48786a5.525,5.525,0,0,1,0-11.04992,19.32881,19.32881,0,0,0,13.28209-5.25976,5.52183,5.52183,0,0,1,7.55235,8.05757A30.319,30.319,0,0,1,196.83676,71.48786Z" transform="translate(-4.426 -10.50857)" fill="#519032"/></g><g style="mix-blend-mode:multiply"><path d="M214.00963,28.53294a5.49676,5.49676,0,0,1-3.826-1.54392,19.31008,19.31008,0,0,0-13.46182-5.43053,5.525,5.525,0,0,1,0-11.04992,30.28966,30.28966,0,0,1,21.11494,8.51835,5.52506,5.52506,0,0,1-3.82709,9.506Z" transform="translate(-4.426 -10.50857)" fill="#519032"/></g><g style="mix-blend-mode:multiply"><path d="M224,65.81148V18.53032a5.69221,5.69221,0,0,1,5.00787-5.763A5.50083,5.50083,0,0,1,235,18.2459v47.85a5.50084,5.50084,0,0,1-5.99213,5.47856A5.69221,5.69221,0,0,1,224,65.81148Z" transform="translate(-4.426 -10.50857)" fill="#8e53a1"/></g><g style="mix-blend-mode:multiply"><path d="M264,65.81148V18.53032a5.69221,5.69221,0,0,1,5.00787-5.763A5.50083,5.50083,0,0,1,275,18.2459v47.85a5.50084,5.50084,0,0,1-5.99213,5.47856A5.69221,5.69221,0,0,1,264,65.81148Z" transform="translate(-4.426 -10.50857)" fill="#519032"/></g><g style="mix-blend-mode:multiply"><path d="M268.63529,48H230.35887a5.6913,5.6913,0,0,1-5.76125-5.00787A5.49988,5.49988,0,0,1,230.07381,37h38.27642a5.6913,5.6913,0,0,1,5.76125,5.00787A5.49988,5.49988,0,0,1,268.63529,48Z" transform="translate(-4.426 -10.50857)" fill="#1c6fa7"/></g><g style="mix-blend-mode:multiply"><g style="mix-blend-mode:multiply"><path d="M284,65.81148V18.53032a5.69221,5.69221,0,0,1,5.00787-5.763A5.50083,5.50083,0,0,1,295,18.2459v47.85a5.50084,5.50084,0,0,1-5.99213,5.47856A5.69221,5.69221,0,0,1,284,65.81148Z" transform="translate(-4.426 -10.50857)" fill="#1c6fa7"/></g></g><g style="mix-blend-mode:multiply"><path d="M350.139,72.66053a5.71355,5.71355,0,0,1-4.34882-1.98932L303.73281,21.66a5.58868,5.58868,0,0,1,.65949-7.94024,5.74473,5.74473,0,0,1,8.0326.65194L354.48228,63.3829a5.58868,5.58868,0,0,1-.65949,7.94024A5.71773,5.71773,0,0,1,350.139,72.66053Z" transform="translate(-4.426 -10.50857)" fill="#1c6fa7"/></g><g style="mix-blend-mode:multiply"><path d="M345,66.66682V17.675a5.83283,5.83283,0,0,1,5.00787-5.9715A5.58246,5.58246,0,0,1,356,17.38024v49.5813a5.58247,5.58247,0,0,1-5.99213,5.67679A5.83285,5.83285,0,0,1,345,66.66682Z" transform="translate(-4.426 -10.50857)" fill="#519032"/></g><g style="mix-blend-mode:multiply"><path d="M301.76485,66.69815V17.96238a5.8903,5.8903,0,0,1,5.222-5.94029,5.71007,5.71007,0,0,1,6.24832,5.64711V66.99133a5.71006,5.71006,0,0,1-6.24832,5.64711A5.8903,5.8903,0,0,1,301.76485,66.69815Z" transform="translate(-4.426 -10.50857)" fill="#8e53a1"/></g><g style="mix-blend-mode:multiply"><path d="M366.37192,47.696a5.53421,5.53421,0,0,1-5.54357-5.525,30.576,30.576,0,0,1,30.5925-30.48978,5.525,5.525,0,1,1,0,11.04992A19.49476,19.49476,0,0,0,371.91549,42.171,5.53422,5.53422,0,0,1,366.37192,47.696Z" transform="translate(-4.426 -10.50857)" fill="#1c6fa7"/></g><g style="mix-blend-mode:multiply"><path d="M391.42085,72.66053a30.57577,30.57577,0,0,1-30.5925-30.4895,5.5436,5.5436,0,0,1,11.08714,0,19.49469,19.49469,0,0,0,19.50536,19.43959,5.525,5.525,0,1,1,0,11.04991Z" transform="translate(-4.426 -10.50857)" fill="#8e53a1"/></g><g style="mix-blend-mode:multiply"><path d="M391.42085,72.66053a5.525,5.525,0,1,1,0-11.04991,20.74893,20.74893,0,0,0,13.89682-5.25976,5.53358,5.53358,0,1,1,7.58668,8.05757A32.11582,32.11582,0,0,1,391.42085,72.66053Z" transform="translate(-4.426 -10.50857)" fill="#1c6fa7"/></g><g style="mix-blend-mode:multiply"><path d="M408.78728,29.70562a5.53517,5.53517,0,0,1-3.84342-1.54392,19.445,19.445,0,0,0-13.523-5.43053,5.525,5.525,0,1,1,0-11.04992,30.50042,30.50042,0,0,1,21.21092,8.51835,5.52474,5.52474,0,0,1-3.84449,9.506Z" transform="translate(-4.426 -10.50857)" fill="#519032"/></g><g style="mix-blend-mode:multiply"><path d="M409.5,65.79157A5.49072,5.49072,0,0,1,404,60.31V42.73433a5.5,5.5,0,0,1,11,0V60.31A5.49072,5.49072,0,0,1,409.5,65.79157Z" transform="translate(-4.426 -10.50857)" fill="#519032"/></g><g style="mix-blend-mode:multiply"><path d="M409.06643,48H389.41475a5.5,5.5,0,1,1,0-11h19.65168a5.5,5.5,0,1,1,0,11Z" transform="translate(-4.426 -10.50857)" fill="#818181"/></g><path d="M23.96608,155.602a4.62914,4.62914,0,0,1,2.07814,1.72762,5.2741,5.2741,0,0,1,0,5.33091,4.60513,4.60513,0,0,1-2.07814,1.73743,7.79241,7.79241,0,0,1-3.18267.602H18v4H15V155h5.78341A7.79241,7.79241,0,0,1,23.96608,155.602Zm.09926,6.62124a3.07744,3.07744,0,0,0,0-4.44652A4.31418,4.31418,0,0,0,21.28087,157H18v6h3.28087A4.31418,4.31418,0,0,0,24.06534,162.22326Z" transform="translate(-4.426 -10.50857)" fill="#005482"/><path d="M38.43131,169l-2.80374-4.01915c-.11776.01245-.2944.01915-.52944.01915H32v4H29V155h6.08261a4.23172,4.23172,0,0,1,3.22173.18285,4.68592,4.68592,0,0,1,2.10366,1.74883,4.88845,4.88845,0,0,1,.732,2.70363,4.822,4.822,0,0,1-.7826,2.76418,4.65779,4.65779,0,0,1-2.24608,1.728L41.38365,169Zm-.38826-11.22611A4.29826,4.29826,0,0,0,35.26881,157H32v6h3.26881a4.24914,4.24914,0,0,0,2.77424-.78544,2.7295,2.7295,0,0,0,.9461-2.22506A2.70042,2.70042,0,0,0,38.04305,157.77389Z" transform="translate(-4.426 -10.50857)" fill="#005482"/><path d="M46.34329,168.05986A6.99266,6.99266,0,0,1,43.599,165.4386a7.56038,7.56038,0,0,1,0-7.5015,6.99256,6.99256,0,0,1,2.74433-2.62125,8.608,8.608,0,0,1,7.8459,0,7.01677,7.01677,0,0,1,2.74433,2.61133,7.59772,7.59772,0,0,1,0,7.52134,7.01686,7.01686,0,0,1-2.74433,2.61134,8.60806,8.60806,0,0,1-7.8459,0Zm6.48416-2.01185a4.63792,4.63792,0,0,0,1.789-1.78853,5.41141,5.41141,0,0,0,0-5.14326,4.638,4.638,0,0,0-1.789-1.78853,5.44349,5.44349,0,0,0-5.12242,0,4.63006,4.63006,0,0,0-1.78852,1.78853,5.40775,5.40775,0,0,0,0,5.14326A4.63,4.63,0,0,0,47.705,166.048a5.44349,5.44349,0,0,0,5.12242,0Z" transform="translate(-4.426 -10.50857)" fill="#005482"/><path d="M63,157v4h7v2H63v6H60V155H71v2Z" transform="translate(-4.426 -10.50857)" fill="#005482"/><path d="M84,167v2H73V155H83v2H75v4h7v2H75v4Z" transform="translate(-4.426 -10.50857)" fill="#005482"/><path d="M87.12859,168.53825a6.61611,6.61611,0,0,1-2.42871-1.24065l.91461-2.05254a7.21747,7.21747,0,0,0,2.14435,1.1285,7.81,7.81,0,0,0,2.55128.43671,4.41055,4.41055,0,0,0,2.36767-.50817,1.53966,1.53966,0,0,0,.7826-1.3419,1.2978,1.2978,0,0,0-.43671-1.00542,3.05637,3.05637,0,0,0-1.10815-.62033q-.6707-.22332-1.82922-.50817a21.2963,21.2963,0,0,1-2.63218-.77219,4.33666,4.33666,0,0,1-1.728-1.20988,3.25508,3.25508,0,0,1-.72157-2.22524,3.79923,3.79923,0,0,1,.64018-2.14485,4.33285,4.33285,0,0,1,1.931-1.53444,7.82848,7.82848,0,0,1,3.16119-.56971,10.235,10.235,0,0,1,2.5612.32555,7.05772,7.05772,0,0,1,2.17462.935l-.83322,2.05254a8.24071,8.24071,0,0,0-1.9513-.83273,7.30854,7.30854,0,0,0-1.97165-.28486,4.118,4.118,0,0,0-2.32747.529,1.63014,1.63014,0,0,0-.76226,1.40244,1.26726,1.26726,0,0,0,.43671.9955,3.16374,3.16374,0,0,0,1.10816.6104q.6707.22332,1.82922.50817a19.04744,19.04744,0,0,1,2.6019.76226,4.453,4.453,0,0,1,1.73791,1.2089,3.18931,3.18931,0,0,1,.72156,2.19546,3.74612,3.74612,0,0,1-.64017,2.13392,4.35053,4.35053,0,0,1-1.94138,1.52452,7.90111,7.90111,0,0,1-3.17062.56971A10.85923,10.85923,0,0,1,87.12859,168.53825Z" transform="translate(-4.426 -10.50857)" fill="#005482"/><path d="M99.4468,168.53825a6.61627,6.61627,0,0,1-2.42871-1.24065l.91462-2.05254a7.21741,7.21741,0,0,0,2.14434,1.1285,7.81,7.81,0,0,0,2.55129.43671,4.41051,4.41051,0,0,0,2.36766-.50817,1.53967,1.53967,0,0,0,.78261-1.3419,1.29783,1.29783,0,0,0-.43671-1.00542,3.0565,3.0565,0,0,0-1.10816-.62033q-.6707-.22332-1.82922-.50817a21.2966,21.2966,0,0,1-2.63217-.77219,4.33662,4.33662,0,0,1-1.728-1.20988,3.25512,3.25512,0,0,1-.72156-2.22524,3.79916,3.79916,0,0,1,.64018-2.14485,4.33277,4.33277,0,0,1,1.93095-1.53444,7.82851,7.82851,0,0,1,3.16119-.56971,10.23509,10.23509,0,0,1,2.56121.32555,7.05772,7.05772,0,0,1,2.17462.935l-.83322,2.05254a8.241,8.241,0,0,0-1.95131-.83273,7.30843,7.30843,0,0,0-1.97165-.28486,4.118,4.118,0,0,0-2.32746.529,1.63011,1.63011,0,0,0-.76226,1.40244,1.26723,1.26723,0,0,0,.43671.9955,3.16369,3.16369,0,0,0,1.10815.6104q.6707.22332,1.82922.50817a19.04744,19.04744,0,0,1,2.6019.76226,4.45294,4.45294,0,0,1,1.73791,1.2089,3.18931,3.18931,0,0,1,.72157,2.19546,3.74605,3.74605,0,0,1-.64018,2.13392A4.35042,4.35042,0,0,1,105.799,168.436a7.901,7.901,0,0,1-3.17061.56971A10.85924,10.85924,0,0,1,99.4468,168.53825Z" transform="translate(-4.426 -10.50857)" fill="#005482"/><path d="M110,155h3v14h-3Z" transform="translate(-4.426 -10.50857)" fill="#005482"/><path d="M119.27545,168.05986a6.99266,6.99266,0,0,1-2.74433-2.62126,7.56031,7.56031,0,0,1,0-7.5015,6.99256,6.99256,0,0,1,2.74433-2.62125,8.608,8.608,0,0,1,7.8459,0,7.01677,7.01677,0,0,1,2.74433,2.61133,7.59778,7.59778,0,0,1,0,7.52134,7.01686,7.01686,0,0,1-2.74433,2.61134,8.60806,8.60806,0,0,1-7.8459,0Zm6.48415-2.01185a4.63792,4.63792,0,0,0,1.789-1.78853,5.41141,5.41141,0,0,0,0-5.14326,4.638,4.638,0,0,0-1.789-1.78853,5.44347,5.44347,0,0,0-5.12241,0,4.63008,4.63008,0,0,0-1.78853,1.78853,5.40775,5.40775,0,0,0,0,5.14326,4.63,4.63,0,0,0,1.78853,1.78853,5.44347,5.44347,0,0,0,5.12241,0Z" transform="translate(-4.426 -10.50857)" fill="#005482"/><path d="M146,155v14h-2.33228L136,159.16684V169h-3V155h2.37419L143,164.20886V155Z" transform="translate(-4.426 -10.50857)" fill="#005482"/><path d="M158.10927,166h-6.481l-1.27757,3h-3.04239l6.30029-14h2.55957l6.32031,14h-3.08308Zm-.55813-3-2.68329-6.22015L152.20491,163Z" transform="translate(-4.426 -10.50857)" fill="#005482"/><path d="M164,155h3v12h7v2H164Z" transform="translate(-4.426 -10.50857)" fill="#005482"/><path d="M181,155h6.12012a8.782,8.782,0,0,1,3.98.87012,6.43633,6.43633,0,0,1,2.70019,2.46,7.495,7.495,0,0,1,0,7.33984,6.43633,6.43633,0,0,1-2.70019,2.46,8.782,8.782,0,0,1-3.98.87012H181Zm5.54171,12a6.185,6.185,0,0,0,2.823-.61445,4.39715,4.39715,0,0,0,1.87538-1.74974,5.62214,5.62214,0,0,0,0-5.27162,4.39715,4.39715,0,0,0-1.87538-1.74974,6.185,6.185,0,0,0-2.823-.61445H183v10Z" transform="translate(-4.426 -10.50857)" fill="#005482"/><path d="M208,167v2H197V155h11v2h-8v4h7v2h-7v4Z" transform="translate(-4.426 -10.50857)" fill="#005482"/><path d="M222.96324,155l-6.1001,14h-2.56006L208.183,155h2.82031l4.65967,10.7998L220.36314,155Z" transform="translate(-4.426 -10.50857)" fill="#005482"/><path d="M235,167v2H224V155h11v2h-8v4h7v2h-7v4Z" transform="translate(-4.426 -10.50857)" fill="#005482"/><path d="M237,155h3v12h7v2H237Z" transform="translate(-4.426 -10.50857)" fill="#005482"/><path d="M251.43846,168.05986a6.99329,6.99329,0,0,1-2.74334-2.62126,7.557,7.557,0,0,1,0-7.5015,6.99319,6.99319,0,0,1,2.74334-2.62125,8.61,8.61,0,0,1,7.84689,0,7.02945,7.02945,0,0,1,2.74532,2.61133,7.60761,7.60761,0,0,1,0,7.52134,7.02955,7.02955,0,0,1-2.74532,2.61134,8.61011,8.61011,0,0,1-7.84689,0Zm6.48515-2.01185a4.63008,4.63008,0,0,0,1.78853-1.78853,5.40417,5.40417,0,0,0,0-5.14326,4.63015,4.63015,0,0,0-1.78853-1.78853,5.44151,5.44151,0,0,0-5.12143,0,4.63513,4.63513,0,0,0-1.79051,1.78853,5.41867,5.41867,0,0,0,0,5.14326,4.63507,4.63507,0,0,0,1.79051,1.78853,5.44151,5.44151,0,0,0,5.12143,0Z" transform="translate(-4.426 -10.50857)" fill="#005482"/><path d="M273.96558,155.602a4.62527,4.62527,0,0,1,2.07864,1.72762,5.27719,5.27719,0,0,1,0,5.33091,4.6013,4.6013,0,0,1-2.07864,1.73743,7.78745,7.78745,0,0,1-3.18266.602H268v4h-3V155h5.78292A7.78745,7.78745,0,0,1,273.96558,155.602Zm.09871,6.62124a3.07509,3.07509,0,0,0,0-4.44652A4.31319,4.31319,0,0,0,271.27982,157H268v6h3.27982A4.31319,4.31319,0,0,0,274.06429,162.22326Z" transform="translate(-4.426 -10.50857)" fill="#005482"/><path d="M293,169v-9.62969L287.82439,167h-1.17912L282,159.49239V169h-3V155h2.23748l5.81478,9.28027L292.76186,155h2.23748l.02145,14Z" transform="translate(-4.426 -10.50857)" fill="#005482"/><path d="M309,167v2H298V155h11v2h-8v4h7v2h-7v4Z" transform="translate(-4.426 -10.50857)" fill="#005482"/><path d="M324,155v14h-1.98614L314,159.16684V169h-3V155h2.72033L321,164.20886V155Z" transform="translate(-4.426 -10.50857)" fill="#005482"/><path d="M330,157h-4v-2h12v2h-5v12h-3Z" transform="translate(-4.426 -10.50857)" fill="#005482"/><path d="M352.96558,155.602a4.62527,4.62527,0,0,1,2.07864,1.72762,5.27719,5.27719,0,0,1,0,5.33091,4.6013,4.6013,0,0,1-2.07864,1.73743,7.78745,7.78745,0,0,1-3.18266.602H347v4h-3V155h5.78292A7.78745,7.78745,0,0,1,352.96558,155.602Zm.09871,6.62124a3.07509,3.07509,0,0,0,0-4.44652A4.31319,4.31319,0,0,0,350.27982,157H347v6h3.27982A4.31319,4.31319,0,0,0,353.06429,162.22326Z" transform="translate(-4.426 -10.50857)" fill="#005482"/><path d="M361.46768,168.05986a6.98668,6.98668,0,0,1-2.74333-2.62126,7.557,7.557,0,0,1,0-7.5015,6.98658,6.98658,0,0,1,2.74333-2.62125,8.61005,8.61005,0,0,1,7.8469,0,7.02679,7.02679,0,0,1,2.74433,2.61133,7.601,7.601,0,0,1,0,7.52134,7.02688,7.02688,0,0,1-2.74433,2.61134,8.61013,8.61013,0,0,1-7.8469,0Zm6.48515-2.01185a4.63666,4.63666,0,0,0,1.78853-1.78853,5.41133,5.41133,0,0,0,0-5.14326,4.63673,4.63673,0,0,0-1.78853-1.78853,5.44347,5.44347,0,0,0-5.12241,0,4.63257,4.63257,0,0,0-1.78952,1.78853,5.41133,5.41133,0,0,0,0,5.14326,4.63251,4.63251,0,0,0,1.78952,1.78853,5.44347,5.44347,0,0,0,5.12241,0Z" transform="translate(-4.426 -10.50857)" fill="#005482"/><path d="M384.43083,169l-2.80421-4.01915c-.11776.01245-.29392.01915-.52944.01915H378v4h-3V155h6.24571a4.23116,4.23116,0,0,1,3.22173.18285,4.682,4.682,0,0,1,2.10415,1.74883,4.88409,4.88409,0,0,1,.73149,2.70363,4.82548,4.82548,0,0,1-.78211,2.76418,4.65774,4.65774,0,0,1-2.24608,1.728L387.54724,169Zm-.38883-11.22611A4.29728,4.29728,0,0,0,381.26776,157H378v6h3.26776a4.24818,4.24818,0,0,0,2.77424-.78544,2.72865,2.72865,0,0,0,.94715-2.22506A2.6996,2.6996,0,0,0,384.042,157.77389Z" transform="translate(-4.426 -10.50857)" fill="#005482"/><path d="M392,157h-4v-2h12v2h-5v12h-3Z" transform="translate(-4.426 -10.50857)" fill="#005482"/><path d="M409.55135,166h-6.481l-1.27758,3h-3.04192l6.29981-14h2.55957l6.32031,14h-3.08261Zm-.55864-3-2.68279-6.22015L403.647,163Z" transform="translate(-4.426 -10.50857)" fill="#005482"/><path d="M415,155h3v12h7v2H415Z" transform="translate(-4.426 -10.50857)" fill="#005482"/><path d="M18,177v5h7v2H18v5H15V175H26v2Z" transform="translate(-4.426 -10.50857)" fill="#005482"/><path d="M30.18351,188.54555a6.99252,6.99252,0,0,1-2.74433-2.62126,7.56036,7.56036,0,0,1,0-7.50149,6.99259,6.99259,0,0,1,2.74433-2.62126,8.60806,8.60806,0,0,1,7.8459,0,7.01684,7.01684,0,0,1,2.74433,2.61133,7.59774,7.59774,0,0,1,0,7.52135,7.01684,7.01684,0,0,1-2.74433,2.61133,8.608,8.608,0,0,1-7.8459,0Zm6.48416-2.01185a4.63789,4.63789,0,0,0,1.789-1.78852,5.41141,5.41141,0,0,0,0-5.14326,4.63785,4.63785,0,0,0-1.789-1.78853,5.44349,5.44349,0,0,0-5.12242,0,4.62992,4.62992,0,0,0-1.78852,1.78853,5.40775,5.40775,0,0,0,0,5.14326,4.63,4.63,0,0,0,1.78852,1.78852,5.44349,5.44349,0,0,0,5.12242,0Z" transform="translate(-4.426 -10.50857)" fill="#005482"/><path d="M53.43131,189l-2.80374-4.01915c-.11776.01245-.2944.01915-.52944.01915H47v4H44V175h5.96154a8.97746,8.97746,0,0,1,3.22173.66854,4.686,4.686,0,0,1,2.10366,1.74883,4.88848,4.88848,0,0,1,.732,2.70364,4.822,4.822,0,0,1-.7826,2.76418,4.65779,4.65779,0,0,1-2.24608,1.728L56.26258,189Zm-.38826-11.22611A4.29826,4.29826,0,0,0,50.26881,177H47v6h3.26881a4.24914,4.24914,0,0,0,2.77424-.78544,2.7295,2.7295,0,0,0,.9461-2.22506A2.70042,2.70042,0,0,0,53.04305,177.77389Z" transform="translate(-4.426 -10.50857)" fill="#005482"/><path d="M75.76025,182.99023a3.53358,3.53358,0,0,1,.67969,2.21,3.23836,3.23836,0,0,1-1.3999,2.80957A7.03423,7.03423,0,0,1,70.96,189H64V175h6.56006a6.44186,6.44186,0,0,1,3.81982.96973,3.11756,3.11756,0,0,1,1.34033,2.66992,3.51049,3.51049,0,0,1-.48,1.84082,3.28546,3.28546,0,0,1-1.32031,1.23926A3.69766,3.69766,0,0,1,75.76025,182.99023ZM66,177v4h3.81331a3.87194,3.87194,0,0,0,2.16544-.508,1.67408,1.67408,0,0,0,.75639-1.48141,1.69194,1.69194,0,0,0-.75639-1.50265A3.87194,3.87194,0,0,0,69.81331,177Zm7.14866,8.00048q0-2-2.99009-2.00048H66v4h4.15857Q73.14842,187,73.14866,185.00048Z" transform="translate(-4.426 -10.50857)" fill="#005482"/><path d="M81.33423,188.54555a6.96436,6.96436,0,0,1-2.72349-2.61133,7.63084,7.63084,0,0,1,.00993-7.52135,7.03912,7.03912,0,0,1,2.73391-2.61133,8.01368,8.01368,0,0,1,3.89268-.94587,8.114,8.114,0,0,1,3.19146.6104,6.5021,6.5021,0,0,1,2.43912,1.76768l-1.70714,1.60591a4.98215,4.98215,0,0,0-3.80136-1.66645,5.3315,5.3315,0,0,0-2.62225.64018,4.61425,4.61425,0,0,0-1.80888,1.7786,5.44705,5.44705,0,0,0,0,5.16311,4.60765,4.60765,0,0,0,1.80888,1.7786,5.3315,5.3315,0,0,0,2.62225.64018,4.951,4.951,0,0,0,3.80136-1.68729l1.70714,1.62675A6.48819,6.48819,0,0,1,88.4283,188.881a8.1864,8.1864,0,0,1-3.20139.61041A8.01371,8.01371,0,0,1,81.33423,188.54555Z" transform="translate(-4.426 -10.50857)" fill="#005482"/><path d="M106.96608,175.602a4.62914,4.62914,0,0,1,2.07814,1.72762,5.2741,5.2741,0,0,1,0,5.33091,4.60513,4.60513,0,0,1-2.07814,1.73743,7.79241,7.79241,0,0,1-3.18267.602H101v4H98V175h5.78341A7.79241,7.79241,0,0,1,106.96608,175.602Zm.09926,6.62124a3.07744,3.07744,0,0,0,0-4.44652A4.31418,4.31418,0,0,0,104.28087,177H101v6h3.28087A4.31418,4.31418,0,0,0,107.06534,182.22326Z" transform="translate(-4.426 -10.50857)" fill="#005482"/><path d="M115.10734,188.54555a6.99252,6.99252,0,0,1-2.74433-2.62126,7.56029,7.56029,0,0,1,0-7.50149,6.99259,6.99259,0,0,1,2.74433-2.62126,8.60806,8.60806,0,0,1,7.8459,0,7.01684,7.01684,0,0,1,2.74433,2.61133,7.59774,7.59774,0,0,1,0,7.52135,7.01684,7.01684,0,0,1-2.74433,2.61133,8.608,8.608,0,0,1-7.8459,0Zm6.48416-2.01185a4.63787,4.63787,0,0,0,1.789-1.78852,5.41133,5.41133,0,0,0,0-5.14326,4.63783,4.63783,0,0,0-1.789-1.78853,5.44349,5.44349,0,0,0-5.12242,0,4.62992,4.62992,0,0,0-1.78852,1.78853,5.40775,5.40775,0,0,0,0,5.14326,4.63,4.63,0,0,0,1.78852,1.78852,5.44349,5.44349,0,0,0,5.12242,0Z" transform="translate(-4.426 -10.50857)" fill="#005482"/><path d="M130.2607,189.024a6.6163,6.6163,0,0,1-2.4287-1.24066l.91461-2.05254a7.21718,7.21718,0,0,0,2.14434,1.1285,7.81,7.81,0,0,0,2.55129.43671,4.41051,4.41051,0,0,0,2.36766-.50817,1.53965,1.53965,0,0,0,.78261-1.34189,1.29785,1.29785,0,0,0-.43671-1.00543,3.05656,3.05656,0,0,0-1.10816-.62033q-.67069-.22331-1.82922-.50817a21.29681,21.29681,0,0,1-2.63217-.77218,4.33665,4.33665,0,0,1-1.728-1.20989,3.25509,3.25509,0,0,1-.72156-2.22524,3.79912,3.79912,0,0,1,.64018-2.14484,4.33275,4.33275,0,0,1,1.93095-1.53444,7.82834,7.82834,0,0,1,3.16119-.56971,10.23508,10.23508,0,0,1,2.56121.32554,7.0582,7.0582,0,0,1,2.17462.935l-.83322,2.05254a8.24137,8.24137,0,0,0-1.95131-.83273,7.30839,7.30839,0,0,0-1.97164-.28485,4.118,4.118,0,0,0-2.32747.529,1.6301,1.6301,0,0,0-.76226,1.40243,1.26722,1.26722,0,0,0,.43671.9955,3.1637,3.1637,0,0,0,1.10815.61041q.6707.2233,1.82922.50817a19.04663,19.04663,0,0,1,2.60191.76226,4.45307,4.45307,0,0,1,1.73791,1.20889,3.18938,3.18938,0,0,1,.72156,2.19546,3.74611,3.74611,0,0,1-.64018,2.13393,4.35058,4.35058,0,0,1-1.94137,1.52452,7.90128,7.90128,0,0,1-3.17062.56971A10.85929,10.85929,0,0,1,130.2607,189.024Z" transform="translate(-4.426 -10.50857)" fill="#005482"/><path d="M144,177h-5v-2h12v2h-4v12h-3Z" transform="translate(-4.426 -10.50857)" fill="#005482"/><path d="M151,183h6v2h-6Z" transform="translate(-4.426 -10.50857)" fill="#005482"/><path d="M160.48653,189.024a6.6163,6.6163,0,0,1-2.4287-1.24066l.91461-2.05254a7.2173,7.2173,0,0,0,2.14434,1.1285,7.81,7.81,0,0,0,2.55129.43671,4.41051,4.41051,0,0,0,2.36766-.50817,1.53965,1.53965,0,0,0,.78261-1.34189,1.29785,1.29785,0,0,0-.43671-1.00543,3.05656,3.05656,0,0,0-1.10816-.62033q-.6707-.22331-1.82922-.50817a21.29681,21.29681,0,0,1-2.63217-.77218,4.33654,4.33654,0,0,1-1.728-1.20989,3.255,3.255,0,0,1-.72157-2.22524,3.79912,3.79912,0,0,1,.64018-2.14484,4.33275,4.33275,0,0,1,1.93095-1.53444,7.82834,7.82834,0,0,1,3.16119-.56971,10.23508,10.23508,0,0,1,2.56121.32554,7.0582,7.0582,0,0,1,2.17462.935l-.83322,2.05254a8.24137,8.24137,0,0,0-1.95131-.83273,7.30839,7.30839,0,0,0-1.97164-.28485,4.118,4.118,0,0,0-2.32747.529,1.6301,1.6301,0,0,0-.76226,1.40243,1.26722,1.26722,0,0,0,.43671.9955,3.1637,3.1637,0,0,0,1.10815.61041q.67069.2233,1.82922.50817a19.04663,19.04663,0,0,1,2.60191.76226,4.45307,4.45307,0,0,1,1.73791,1.20889,3.18938,3.18938,0,0,1,.72156,2.19546,3.74611,3.74611,0,0,1-.64018,2.13393,4.35058,4.35058,0,0,1-1.94137,1.52452,7.90128,7.90128,0,0,1-3.17062.56971A10.85929,10.85929,0,0,1,160.48653,189.024Z" transform="translate(-4.426 -10.50857)" fill="#005482"/><path d="M182,187v2H171V175h11v2h-8v4h7v2h-7v4Z" transform="translate(-4.426 -10.50857)" fill="#005482"/><path d="M187.35862,188.54555a6.9644,6.9644,0,0,1-2.72348-2.61133,7.63081,7.63081,0,0,1,.00992-7.52135,7.03912,7.03912,0,0,1,2.73391-2.61133,8.0137,8.0137,0,0,1,3.89268-.94587,8.114,8.114,0,0,1,3.19146.6104,6.50222,6.50222,0,0,1,2.43913,1.76768l-1.70714,1.60591a4.98217,4.98217,0,0,0-3.80137-1.66645,5.3315,5.3315,0,0,0-2.62225.64018,4.61422,4.61422,0,0,0-1.80887,1.7786,5.44705,5.44705,0,0,0,0,5.16311,4.60763,4.60763,0,0,0,1.80887,1.7786,5.3315,5.3315,0,0,0,2.62225.64018,4.951,4.951,0,0,0,3.80137-1.68729l1.70714,1.62675a6.4883,6.4883,0,0,1-2.44955,1.76768,8.18633,8.18633,0,0,1-3.20139.61041A8.01371,8.01371,0,0,1,187.35862,188.54555Z" transform="translate(-4.426 -10.50857)" fill="#005482"/><path d="M201.3949,188.54555a6.99252,6.99252,0,0,1-2.74433-2.62126,7.56029,7.56029,0,0,1,0-7.50149,6.99259,6.99259,0,0,1,2.74433-2.62126,8.60806,8.60806,0,0,1,7.8459,0,7.01684,7.01684,0,0,1,2.74433,2.61133,7.59774,7.59774,0,0,1,0,7.52135,7.01684,7.01684,0,0,1-2.74433,2.61133,8.608,8.608,0,0,1-7.8459,0Zm6.48416-2.01185a4.63793,4.63793,0,0,0,1.789-1.78852,5.41141,5.41141,0,0,0,0-5.14326,4.63789,4.63789,0,0,0-1.789-1.78853,5.44349,5.44349,0,0,0-5.12242,0,4.63,4.63,0,0,0-1.78853,1.78853,5.40775,5.40775,0,0,0,0,5.14326,4.63005,4.63005,0,0,0,1.78853,1.78852,5.44349,5.44349,0,0,0,5.12242,0Z" transform="translate(-4.426 -10.50857)" fill="#005482"/><path d="M228,175v14h-2.21283L218,179.65254V189h-3V175h2.49364L225,184.69456V175Z" transform="translate(-4.426 -10.50857)" fill="#005482"/><path d="M231,175h6.12012a8.77992,8.77992,0,0,1,3.97949.87012,6.44177,6.44177,0,0,1,2.70117,2.46,7.50163,7.50163,0,0,1,0,7.33984,6.44177,6.44177,0,0,1-2.70117,2.46A8.77992,8.77992,0,0,1,237.12012,189H231Zm6.54222,12a6.185,6.185,0,0,0,2.823-.61445,4.39586,4.39586,0,0,0,1.87487-1.74974,5.6145,5.6145,0,0,0,0-5.27162,4.39586,4.39586,0,0,0-1.87487-1.74974,6.185,6.185,0,0,0-2.823-.61445H234v10Z" transform="translate(-4.426 -10.50857)" fill="#005482"/><path d="M256.34737,186h-6.481l-1.27667,3h-3.04286l6.2998-14h2.56055l6.32031,14h-3.08355Zm-.55769-2-2.68378-6.22015L250.444,184Z" transform="translate(-4.426 -10.50857)" fill="#005482"/><path d="M271.43083,189l-2.80421-4.01915c-.11776.01245-.29392.01915-.52944.01915H265v4h-3V175h6.04537a8.97053,8.97053,0,0,1,3.22173.66854,4.68209,4.68209,0,0,1,2.10415,1.74883,4.88412,4.88412,0,0,1,.73149,2.70364,4.8255,4.8255,0,0,1-.78211,2.76418,4.65779,4.65779,0,0,1-2.24608,1.728L274.3469,189Zm-.38883-11.22611A4.29728,4.29728,0,0,0,268.26776,177H265v6h3.26776a4.24818,4.24818,0,0,0,2.77424-.78544,2.72865,2.72865,0,0,0,.94715-2.22506A2.6996,2.6996,0,0,0,271.042,177.77389Z" transform="translate(-4.426 -10.50857)" fill="#005482"/><path d="M283,184.26678V189h-3v-4.69253L274.28636,175h2.82472l4.16761,6.99092L285.486,175h2.6024Z" transform="translate(-4.426 -10.50857)" fill="#005482"/><path d="M305,187v2H294V175h11v2h-8v4h7v2h-7v4Z" transform="translate(-4.426 -10.50857)" fill="#005482"/><path d="M308,175h6.12012a8.78413,8.78413,0,0,1,3.98047.87012,6.43658,6.43658,0,0,1,2.69921,2.46,7.495,7.495,0,0,1,0,7.33984,6.43658,6.43658,0,0,1-2.69921,2.46A8.78413,8.78413,0,0,1,314.12012,189H308Zm5.5412,12a6.188,6.188,0,0,0,2.823-.61445,4.39581,4.39581,0,0,0,1.87487-1.74974,5.62214,5.62214,0,0,0,0-5.27162,4.39581,4.39581,0,0,0-1.87487-1.74974A6.188,6.188,0,0,0,313.5412,177H310v10Z" transform="translate(-4.426 -10.50857)" fill="#005482"/><path d="M325.58579,187.77577A6.59641,6.59641,0,0,1,324,183.02952V175h3v7.92729q0,4.188,3.50963,4.18746,3.49084,0,3.49037-4.18746V175h2v8.02952a6.62237,6.62237,0,0,1-1.57527,4.74625,6.72366,6.72366,0,0,1-8.83894,0Z" transform="translate(-4.426 -10.50857)" fill="#005482"/><path d="M342.2276,188.54555a6.96041,6.96041,0,0,1-2.72447-2.61133,7.63084,7.63084,0,0,1,.01091-7.52135,7.03108,7.03108,0,0,1,2.73342-2.61133,8.015,8.015,0,0,1,3.89267-.94587,8.10979,8.10979,0,0,1,3.191.6104,6.5,6.5,0,0,1,2.43962,1.76768l-1.70714,1.60591a4.98142,4.98142,0,0,0-3.80137-1.66645,5.3301,5.3301,0,0,0-2.62224.64018,4.61873,4.61873,0,0,0-1.80937,1.7786,5.45067,5.45067,0,0,0,0,5.16311,4.61212,4.61212,0,0,0,1.80937,1.7786,5.3301,5.3301,0,0,0,2.62224.64018,4.95028,4.95028,0,0,0,3.80137-1.68729l1.70714,1.62675a6.48823,6.48823,0,0,1-2.44955,1.76768,8.18382,8.18382,0,0,1-3.20089.61041A8.00962,8.00962,0,0,1,342.2276,188.54555Z" transform="translate(-4.426 -10.50857)" fill="#005482"/><path d="M362.45212,186h-6.481l-1.27757,3h-3.04192l6.2998-14H360.511l6.32032,14h-3.08262Zm-.55864-2-2.6828-6.22015L356.54774,184Z" transform="translate(-4.426 -10.50857)" fill="#005482"/><path d="M370,177h-4v-2h12v2h-5v12h-3Z" transform="translate(-4.426 -10.50857)" fill="#005482"/><path d="M381.875,188.54555a6.98663,6.98663,0,0,1-2.74334-2.62126,7.55707,7.55707,0,0,1,0-7.50149,6.9867,6.9867,0,0,1,2.74334-2.62126,8.61011,8.61011,0,0,1,7.84689,0,7.02679,7.02679,0,0,1,2.74433,2.61133,7.60105,7.60105,0,0,1,0,7.52135,7.02679,7.02679,0,0,1-2.74433,2.61133,8.61,8.61,0,0,1-7.84689,0Zm6.48515-2.01185a4.63663,4.63663,0,0,0,1.78853-1.78852,5.41141,5.41141,0,0,0,0-5.14326,4.63659,4.63659,0,0,0-1.78853-1.78853,5.44349,5.44349,0,0,0-5.12242,0,4.6325,4.6325,0,0,0-1.78952,1.78853,5.41141,5.41141,0,0,0,0,5.14326,4.63255,4.63255,0,0,0,1.78952,1.78852,5.44349,5.44349,0,0,0,5.12242,0Z" transform="translate(-4.426 -10.50857)" fill="#005482"/><path d="M405.43083,189l-2.80421-4.01915c-.11776.01245-.29392.01915-.52944.01915H399v4h-3V175h5.653a8.97058,8.97058,0,0,1,3.22173.66854,4.68209,4.68209,0,0,1,2.10415,1.74883,4.88412,4.88412,0,0,1,.73149,2.70364,4.8255,4.8255,0,0,1-.78211,2.76418,4.65779,4.65779,0,0,1-2.24608,1.728L407.95453,189ZM404.042,177.77389A4.29728,4.29728,0,0,0,401.26776,177H398v6h3.26776a4.24818,4.24818,0,0,0,2.77424-.78544,2.72865,2.72865,0,0,0,.94715-2.22506A2.6996,2.6996,0,0,0,404.042,177.77389Z" transform="translate(-4.426 -10.50857)" fill="#005482"/><path d="M411.42042,189.024a6.61226,6.61226,0,0,1-2.4287-1.24066l.91411-2.05254a7.2263,7.2263,0,0,0,2.14485,1.1285,7.80926,7.80926,0,0,0,2.55078.43671,4.41251,4.41251,0,0,0,2.36817-.50817,1.53914,1.53914,0,0,0,.7831-1.34189,1.297,1.297,0,0,0-.43771-1.00543,3.04592,3.04592,0,0,0-1.10765-.62033q-.67-.22331-1.82922-.50817a21.34921,21.34921,0,0,1-2.63218-.77218,4.34009,4.34009,0,0,1-1.728-1.20989,3.255,3.255,0,0,1-.72157-2.22524,3.7992,3.7992,0,0,1,.64018-2.14484,4.33429,4.33429,0,0,1,1.93145-1.53444,7.825,7.825,0,0,1,3.1602-.56971,10.236,10.236,0,0,1,2.5617.32554,7.0582,7.0582,0,0,1,2.17462.935l-.83272,2.05254a8.25685,8.25685,0,0,0-1.9523-.83273,7.30217,7.30217,0,0,0-1.97115-.28485,4.11694,4.11694,0,0,0-2.32747.529,1.63012,1.63012,0,0,0-.76226,1.40243,1.26565,1.26565,0,0,0,.43671.9955,3.17018,3.17018,0,0,0,1.10766.61041q.67145.2233,1.83021.50817a19.03708,19.03708,0,0,1,2.60141.76226,4.45307,4.45307,0,0,1,1.73791,1.20889,3.18694,3.18694,0,0,1,.72156,2.19546,3.74611,3.74611,0,0,1-.64018,2.13393,4.35058,4.35058,0,0,1-1.94137,1.52452,7.90383,7.90383,0,0,1-3.17112.56971A10.856,10.856,0,0,1,411.42042,189.024Z" transform="translate(-4.426 -10.50857)" fill="#005482"/><g style="mix-blend-mode:multiply"><g style="mix-blend-mode:multiply"><path d="M422,96.36979V61.48347a3.86533,3.86533,0,0,1,2.2553-3.5865A4.02821,4.02821,0,0,1,430,61.52663v34.8a4.02821,4.02821,0,0,1-5.7447,3.62965A3.86533,3.86533,0,0,1,422,96.36979Z" transform="translate(-4.426 -10.50857)" fill="#519032"/></g></g><g style="mix-blend-mode:multiply"><g style="mix-blend-mode:multiply"><path d="M408.93708,75h34.86863a3.878,3.878,0,0,1,3.59534,2.2553A4.02821,4.02821,0,0,1,443.77139,83h-34.8a4.02821,4.02821,0,0,1-3.62965-5.7447A3.878,3.878,0,0,1,408.93708,75Z" transform="translate(-4.426 -10.50857)" fill="#1c6fa7"/></g></g><path d="M114.74293,72.66053a5.70064,5.70064,0,0,1-5.07652-8.28047l25.18344-49.57938A5.69884,5.69884,0,1,1,145.012,19.96183L119.82861,69.54122A5.69872,5.69872,0,0,1,114.74293,72.66053Z" transform="translate(-4.426 -10.50857)" fill="#1c6fa7"/><g style="mix-blend-mode:multiply"><path d="M165.11894,72.66053a5.69854,5.69854,0,0,1-5.08567-3.11931L134.84985,19.96183A5.69884,5.69884,0,1,1,145.012,14.80068l25.18345,49.57938a5.70064,5.70064,0,0,1-5.07653,8.28047Z" transform="translate(-4.426 -10.50857)" fill="#519032"/></g><g style="mix-blend-mode:multiply"><path d="M158.84851,61H121.30546a5.693,5.693,0,0,1-5.76377-5.00787A5.50091,5.50091,0,0,1,121.02046,50h37.54305a5.693,5.693,0,0,1,5.76378,5.00787A5.50093,5.50093,0,0,1,158.84851,61Z" transform="translate(-4.426 -10.50857)" fill="#8e53a1"/></g><g style="mix-blend-mode:multiply"><path d="M350.36413,143.30183a5.71357,5.71357,0,0,1-4.34882-1.98932L303.95793,92.30128a5.58868,5.58868,0,0,1,.65949-7.94024,5.74474,5.74474,0,0,1,8.0326.65193L354.7074,134.0242a5.58868,5.58868,0,0,1-.65949,7.94024A5.71772,5.71772,0,0,1,350.36413,143.30183Z" transform="translate(-4.426 -10.50857)" fill="#1c6fa7"/></g><g style="mix-blend-mode:multiply"><path d="M345.22512,137.32379V88.4601a5.82211,5.82211,0,0,1,5.00788-5.95589,5.57617,5.57617,0,0,1,5.99212,5.66194v49.4516a5.57616,5.57616,0,0,1-5.99212,5.66193A5.8221,5.8221,0,0,1,345.22512,137.32379Z" transform="translate(-4.426 -10.50857)" fill="#519032"/></g><g style="mix-blend-mode:multiply"><path d="M301.99,137.33944V88.60368a5.8903,5.8903,0,0,1,5.222-5.94029,5.71006,5.71006,0,0,1,6.24832,5.6471v49.32214a5.71007,5.71007,0,0,1-6.24832,5.64711A5.89031,5.89031,0,0,1,301.99,137.33944Z" transform="translate(-4.426 -10.50857)" fill="#8e53a1"/></g></g></g></svg>